<?xml version="1.0" encoding="utf-8"?>
<!-- Generator: Adobe Illustrator 16.0.0, SVG Export Plug-In . SVG Version: 6.00 Build 0)  -->
<!DOCTYPE svg PUBLIC "-//W3C//DTD SVG 1.1//EN" "http://www.w3.org/Graphics/SVG/1.1/DTD/svg11.dtd">
<svg version="1.1" id="Layer_1" xmlns="http://www.w3.org/2000/svg" xmlns:xlink="http://www.w3.org/1999/xlink" x="0px" y="0px"
	 width="138.059px" height="138.059px" viewBox="0 0 138.059 138.059" enable-background="new 0 0 138.059 138.059"
	 xml:space="preserve">
<g>
	<g>
		<g>
			<circle fill="#76685E" cx="69.029" cy="69.029" r="69.029"/>
		</g>
		<g opacity="0.5">
			<linearGradient id="SVGID_1_" gradientUnits="userSpaceOnUse" x1="69.0293" y1="138.0586" x2="69.0293" y2="0">
				<stop  offset="0" style="stop-color:#000000;stop-opacity:0"/>
				<stop  offset="1" style="stop-color:#000000"/>
			</linearGradient>
			<circle fill="url(#SVGID_1_)" cx="69.029" cy="69.029" r="69.029"/>
		</g>
	</g>
	<path d="M122.029,68.873c0,4.891-0.588,9.561-1.767,13.998c-1.178,4.438-2.945,8.652-5.299,12.639
		c-2.265,4.076-4.894,7.699-7.882,10.869c-3.082,3.172-6.478,5.936-10.193,8.291c-2.084,1.268-4.214,2.4-6.386,3.398
		c-2.177,0.996-4.44,1.854-6.796,2.58c-2.354,0.725-4.755,1.27-7.202,1.633c-2.447,0.359-4.937,0.543-7.475,0.543
		c-2.536,0-5.074-0.184-7.611-0.543c-2.445-0.363-4.802-0.908-7.065-1.633c-2.445-0.727-4.758-1.584-6.932-2.58
		c-2.173-0.998-4.304-2.131-6.386-3.398c-3.715-2.355-7.114-5.119-10.192-8.291c-2.988-3.17-5.617-6.793-7.882-10.869
		c-2.356-3.986-4.077-8.201-5.163-12.639c-1.179-4.438-1.767-9.107-1.767-13.998c0-6.252,0.95-12.141,2.853-17.666
		c1.903-5.527,4.756-10.738,8.561-15.631c3.807-4.707,8.065-8.648,12.775-11.822c4.712-3.08,9.92-5.346,15.629-6.793
		c-3.535,2.174-6.389,5.117-8.562,8.832c-2.176,3.805-3.262,7.93-3.262,12.367c0,6.977,2.446,12.91,7.337,17.803
		c4.893,4.891,10.782,7.338,17.667,7.338c6.884,0,12.774-2.447,17.667-7.338c4.892-4.893,7.337-10.826,7.337-17.803
		c0-4.438-1.042-8.516-3.125-12.23c-2.174-3.715-5.028-6.705-8.562-8.969c5.617,1.447,10.781,3.758,15.493,6.93
		c4.709,3.082,8.969,6.979,12.774,11.686c3.807,4.893,6.659,10.104,8.563,15.631C121.078,56.732,122.029,62.621,122.029,68.873z"/>
	<linearGradient id="SVGID_2_" gradientUnits="userSpaceOnUse" x1="69.0293" y1="69.0293" x2="69.0293" y2="0">
		<stop  offset="0.25" style="stop-color:#FFFFFF;stop-opacity:0"/>
		<stop  offset="1" style="stop-color:#FFFFFF"/>
	</linearGradient>
	<ellipse fill="url(#SVGID_2_)" cx="69.029" cy="34.514" rx="43.143" ry="34.516"/>
</g>
</svg>
