<?xml version="1.0" encoding="utf-8"?>
<!-- Generator: Adobe Illustrator 16.0.0, SVG Export Plug-In . SVG Version: 6.00 Build 0)  -->
<!DOCTYPE svg PUBLIC "-//W3C//DTD SVG 1.1//EN" "http://www.w3.org/Graphics/SVG/1.1/DTD/svg11.dtd">
<svg version="1.1" id="Layer_1" xmlns="http://www.w3.org/2000/svg" xmlns:xlink="http://www.w3.org/1999/xlink" x="0px" y="0px"
	 width="138.059px" height="138.059px" viewBox="0 0 138.059 138.059" enable-background="new 0 0 138.059 138.059"
	 xml:space="preserve">
<g>
	<g>
		<g>
			<circle fill="#8960DC" cx="69.029" cy="69.029" r="69.029"/>
		</g>
		<g opacity="0.5">
			<linearGradient id="SVGID_1_" gradientUnits="userSpaceOnUse" x1="69.0293" y1="138.0586" x2="69.0293" y2="0">
				<stop  offset="0" style="stop-color:#000000;stop-opacity:0"/>
				<stop  offset="1" style="stop-color:#000000"/>
			</linearGradient>
			<circle fill="url(#SVGID_1_)" cx="69.029" cy="69.029" r="69.029"/>
		</g>
	</g>
	<path d="M116.281,99.707c-0.339,0.76-0.676,1.518-1.014,2.281c-0.422,0.678-0.844,1.35-1.268,2.023
		c-0.506,0.76-1.014,1.477-1.52,2.154c-0.508,0.76-1.015,1.479-1.521,2.156c-1.351,1.52-2.829,2.912-4.435,4.178
		c-1.52,1.184-3.209,2.24-5.068,3.168c-1.773,0.932-3.589,1.689-5.447,2.281c-1.942,0.59-3.928,1.057-5.953,1.393
		c-0.932,0.084-1.9,0.17-2.914,0.254c-1.015,0.084-2.072,0.129-3.17,0.129c-2.869,0-5.785-0.299-8.742-0.889
		c-3.039-0.59-6.165-1.438-9.373-2.535c-4.309-1.604-8.445-3.717-12.416-6.336c-3.971-2.615-7.813-5.701-11.53-9.246
		c-1.944-1.943-3.759-3.928-5.45-5.955c-1.689-2.107-3.291-4.221-4.813-6.336c-1.435-2.281-2.741-4.518-3.927-6.711
		c-1.185-2.281-2.237-4.564-3.168-6.846c-1.35-3.545-2.406-7.135-3.166-10.768c-0.678-3.547-1.012-7.051-1.012-10.518
		c0-0.758,0-1.434,0-2.025c0.08-0.674,0.124-1.309,0.124-1.9c0.336-4.223,1.224-8.107,2.662-11.656
		c1.349-3.461,3.294-6.668,5.827-9.629c1.352-1.52,2.787-2.914,4.309-4.18c1.52-1.184,3.164-2.236,4.939-3.168
		c1.775-0.93,3.632-1.689,5.575-2.279c1.856-0.59,3.8-1.059,5.83-1.396c1.011-0.168,2.026-0.293,3.04-0.377c1.01,0,2.027,0,3.039,0
		c2.87,0,5.783,0.252,8.743,0.76c2.956,0.592,5.953,1.436,8.995,2.533c4.307,1.521,8.403,3.504,12.289,5.955
		c3.97,2.531,7.813,5.531,11.529,8.996c-2.705-2.029-5.448-3.719-8.236-5.068c-2.872-1.438-5.783-2.492-8.742-3.166
		c-2.955-0.762-5.828-1.186-8.614-1.27c-2.704-0.08-5.366,0.127-7.982,0.635c-1.351,0.338-2.66,0.719-3.927,1.139
		c-1.352,0.422-2.619,0.971-3.801,1.646c-1.186,0.592-2.324,1.313-3.422,2.156c-1.013,0.76-1.943,1.646-2.786,2.658
		c-1.945,2.111-3.421,4.479-4.435,7.096c-1.098,2.705-1.691,5.662-1.773,8.869c-0.084,3.211,0.296,6.334,1.14,9.375
		c0.842,3.041,2.196,6.039,4.054,8.996c1.015,1.604,2.195,3.166,3.549,4.686c1.266,1.439,2.703,2.834,4.307,4.182
		c1.52,1.439,3.211,2.744,5.07,3.928c1.855,1.186,3.881,2.238,6.078,3.168c-0.758-3.211-1.184-5.111-1.264-5.701l-0.256-0.762
		c-0.508-2.195-1.058-4.561-1.646-7.092c-0.678-2.451-1.352-5.068-2.027-7.857c-0.338-1.52-0.676-3.041-1.014-4.559
		c-0.424-1.439-0.805-2.916-1.141-4.438c-0.338-1.436-0.678-2.828-1.014-4.18c-0.252-1.436-0.549-2.742-0.887-3.928
		c-0.084-0.254-0.126-0.463-0.126-0.633c-0.085-0.168-0.126-0.295-0.126-0.377c-0.086-0.256-0.129-0.467-0.129-0.635
		c-0.083-0.17-0.168-0.299-0.252-0.381c0.761,0.506,1.182,0.844,1.268,1.016l0.127,0.123c0.423,0.424,0.928,0.93,1.519,1.52
		c0.589,0.594,1.268,1.225,2.028,1.902c1.438,1.35,3.082,2.914,4.939,4.688c1.857,1.857,3.973,3.883,6.338,6.08
		c2.279,2.197,4.641,4.48,7.093,6.844c2.449,2.363,4.941,4.77,7.476,7.219c2.197,2.113,4.351,4.182,6.461,6.211
		c2.113,2.111,4.267,4.178,6.461,6.205c2.111,2.029,4.139,3.975,6.082,5.832c1.943,1.855,3.8,3.629,5.575,5.318
		c0.336,0.254,0.589,0.51,0.759,0.762c0.254,0.334,0.508,0.633,0.762,0.887c0.251,0.168,0.506,0.377,0.759,0.635
		C115.773,99.197,116.029,99.449,116.281,99.707z M94.364,92.355c-0.679-0.676-1.692-1.729-3.043-3.166
		c-1.012-0.928-2.112-1.943-3.294-3.043c-1.184-1.094-2.406-2.277-3.674-3.547c-0.678-0.674-1.393-1.346-2.154-2.025
		c-0.676-0.678-1.35-1.307-2.025-1.9c-0.678-0.676-1.353-1.348-2.028-2.027c-0.592-0.59-1.184-1.182-1.772-1.775
		c-0.085-0.082-0.173-0.123-0.254-0.123c-0.086-0.084-0.172-0.17-0.254-0.256c-0.084-0.17-0.171-0.254-0.252-0.254
		c-0.086-0.084-0.173-0.17-0.255-0.252c0.507,2.195,0.803,3.463,0.888,3.799l0.127,0.635c0.336,1.438,0.715,2.916,1.139,4.438
		c0.338,1.52,0.676,3.037,1.014,4.559c2.617,0.76,4.137,1.223,4.563,1.395l0.633,0.125c1.773,0.506,3.549,1.057,5.32,1.648
		C90.815,91.172,92.59,91.768,94.364,92.355z"/>
	<linearGradient id="SVGID_2_" gradientUnits="userSpaceOnUse" x1="69.0293" y1="69.0293" x2="69.0293" y2="0">
		<stop  offset="0.25" style="stop-color:#FFFFFF;stop-opacity:0"/>
		<stop  offset="1" style="stop-color:#FFFFFF"/>
	</linearGradient>
	<ellipse fill="url(#SVGID_2_)" cx="69.029" cy="34.514" rx="43.143" ry="34.516"/>
</g>
</svg>
