<?xml version="1.0" encoding="utf-8"?>
<!-- Generator: Adobe Illustrator 16.0.0, SVG Export Plug-In . SVG Version: 6.00 Build 0)  -->
<!DOCTYPE svg PUBLIC "-//W3C//DTD SVG 1.1//EN" "http://www.w3.org/Graphics/SVG/1.1/DTD/svg11.dtd">
<svg version="1.1" id="Layer_1" xmlns="http://www.w3.org/2000/svg" xmlns:xlink="http://www.w3.org/1999/xlink" x="0px" y="0px"
	 width="138.059px" height="138.059px" viewBox="0 0 138.059 138.059" enable-background="new 0 0 138.059 138.059"
	 xml:space="preserve">
<g>
	<g>
		<g>
			<circle fill="#96E5EC" cx="69.029" cy="69.029" r="69.029"/>
		</g>
		<g opacity="0.5">
			<linearGradient id="SVGID_1_" gradientUnits="userSpaceOnUse" x1="69.0293" y1="138.0586" x2="69.0293" y2="0">
				<stop  offset="0" style="stop-color:#000000;stop-opacity:0"/>
				<stop  offset="1" style="stop-color:#000000"/>
			</linearGradient>
			<circle fill="url(#SVGID_1_)" cx="69.029" cy="69.029" r="69.029"/>
		</g>
	</g>
	<polygon points="117.186,96.832 114.532,86.924 114.53,86.924 107.215,82.699 111.69,79.707 111.93,75.336 111.931,75.334 
		105.556,72.863 105.555,72.863 105.554,72.863 96.834,76.707 90.213,72.883 83.539,69.029 91.829,64.244 96.834,61.354 
		105.553,65.199 105.554,65.199 105.555,65.199 111.93,62.727 111.93,62.725 111.69,58.355 107.215,55.359 114.531,51.137 
		114.532,51.137 117.186,41.229 117.184,41.229 117.186,41.227 107.278,38.57 107.276,38.572 99.962,42.797 99.606,37.424 
		95.941,35.031 95.94,35.029 90.612,39.314 90.612,39.314 90.611,39.314 89.581,48.791 82.958,52.611 76.285,56.465 76.285,53.412 
		76.285,41.113 83.974,35.484 83.975,35.484 83.975,35.482 85.021,28.725 85.019,28.725 81.115,26.748 76.285,29.127 76.285,20.68 
		76.285,20.678 69.032,13.424 69.03,13.426 69.029,13.424 61.776,20.678 61.776,20.68 61.776,29.127 56.946,26.748 53.042,28.725 
		53.04,28.725 54.086,35.482 54.086,35.484 54.087,35.484 61.776,41.113 61.776,53.412 61.776,56.465 59.133,54.939 48.482,48.791 
		47.452,39.316 47.451,39.314 47.451,39.314 42.123,35.031 42.12,35.033 38.456,37.424 38.101,42.795 30.786,38.572 30.785,38.572 
		20.876,41.229 20.876,41.229 20.875,41.229 23.53,51.137 23.532,51.137 30.847,55.361 26.372,58.355 26.133,62.725 26.131,62.727 
		32.506,65.199 32.507,65.199 32.508,65.199 41.228,61.354 51.878,67.504 54.522,69.029 51.878,70.557 41.228,76.707 32.508,72.863 
		32.507,72.863 32.506,72.863 26.132,75.334 26.133,75.336 26.372,79.707 30.847,82.699 23.532,86.92 23.531,86.924 20.876,96.83 
		20.876,96.832 20.876,96.832 30.784,99.488 30.786,99.488 38.101,95.262 38.457,100.635 42.121,103.027 42.122,103.029 
		47.451,98.746 47.451,98.744 47.451,98.744 48.481,89.271 59.132,83.121 61.776,81.596 61.776,91.166 61.776,96.945 
		54.087,102.574 54.086,102.576 54.086,102.576 53.04,109.334 53.042,109.336 56.946,111.313 61.776,108.934 61.776,117.381 
		61.776,117.383 69.029,124.635 69.03,124.635 69.032,124.635 76.285,117.383 76.285,117.381 76.285,108.934 81.115,111.313 
		85.019,109.336 85.021,109.334 83.975,102.576 83.975,102.576 83.974,102.574 76.285,96.945 76.285,89.301 76.285,81.596 
		84.575,86.381 89.58,89.271 90.61,98.744 90.611,98.746 90.611,98.746 95.939,103.029 95.94,103.027 99.606,100.635 99.961,95.262 
		107.277,99.488 107.278,99.488 117.186,96.832 117.185,96.832 	"/>
	<linearGradient id="SVGID_2_" gradientUnits="userSpaceOnUse" x1="69.0293" y1="69.0293" x2="69.0293" y2="0">
		<stop  offset="0.25" style="stop-color:#FFFFFF;stop-opacity:0"/>
		<stop  offset="1" style="stop-color:#FFFFFF"/>
	</linearGradient>
	<ellipse fill="url(#SVGID_2_)" cx="69.029" cy="34.514" rx="43.143" ry="34.516"/>
</g>
</svg>
