<?xml version="1.0" encoding="utf-8"?>
<!-- Generator: Adobe Illustrator 16.0.0, SVG Export Plug-In . SVG Version: 6.00 Build 0)  -->
<!DOCTYPE svg PUBLIC "-//W3C//DTD SVG 1.1//EN" "http://www.w3.org/Graphics/SVG/1.1/DTD/svg11.dtd">
<svg version="1.1" id="Layer_1" xmlns="http://www.w3.org/2000/svg" xmlns:xlink="http://www.w3.org/1999/xlink" x="0px" y="0px"
	 width="138.059px" height="138.059px" viewBox="0 0 138.059 138.059" enable-background="new 0 0 138.059 138.059"
	 xml:space="preserve">
<g>
	<g>
		<g>
			<circle fill="#FAB4D9" cx="69.029" cy="69.029" r="69.029"/>
		</g>
		<g opacity="0.5">
			<linearGradient id="SVGID_1_" gradientUnits="userSpaceOnUse" x1="69.0293" y1="138.0586" x2="69.0293" y2="0">
				<stop  offset="0" style="stop-color:#000000;stop-opacity:0"/>
				<stop  offset="1" style="stop-color:#000000"/>
			</linearGradient>
			<circle fill="url(#SVGID_1_)" cx="69.029" cy="69.029" r="69.029"/>
		</g>
	</g>
	<path d="M59.003,99.527c1.19,1.922,2.29,3.893,3.296,5.904c0.915,1.924,1.648,3.936,2.197,6.043c0.642,2.016,1.1,4.031,1.375,6.045
		c0.365,2.105,0.549,4.207,0.549,6.316c0,0.09,0,0.229,0,0.412c0,0.088-0.047,0.227-0.138,0.412
		c-5.31-1.375-10.484-3.158-15.519-5.355c-4.945-2.199-9.797-4.809-14.559-7.83s-8.789-6.639-12.084-10.85
		c-3.299-4.209-5.861-8.973-7.693-14.281c-0.64-1.738-1.19-3.525-1.647-5.357c-0.367-1.83-0.687-3.66-0.961-5.492
		c-0.092-1.102-0.138-2.107-0.138-3.023c-0.092-1.006-0.137-2.014-0.137-3.021c0-0.912,0.045-1.832,0.137-2.744
		c0-0.914,0.046-1.832,0.138-2.748c0.364-3.482,1.052-6.914,2.06-10.301c1.008-3.297,2.381-6.592,4.121-9.891
		c1.646-3.205,3.617-6.088,5.903-8.65c2.291-2.656,4.946-4.99,7.968-7.006c-1.19,2.473-2.383,4.992-3.572,7.557
		c-1.098,2.473-2.15,4.992-3.16,7.553c-1.006,2.563-1.691,5.174-2.059,7.828c-0.273,2.656-0.273,5.404,0,8.238
		c0.273,2.199,0.733,4.258,1.373,6.18c0.642,2.016,1.42,3.939,2.336,5.771c1.008,1.738,2.15,3.387,3.434,4.943
		c1.372,1.559,2.931,3.021,4.668,4.395c1.008,0.824,2.062,1.604,3.16,2.334c1.006,0.736,2.06,1.422,3.158,2.061
		c1.102,0.641,2.152,1.285,3.16,1.922c1.098,0.734,2.152,1.465,3.158,2.199c1.008,0.641,1.968,1.375,2.885,2.197
		c0.914,0.824,1.739,1.695,2.471,2.609c0.732,0.916,1.418,1.834,2.059,2.746C57.676,97.559,58.363,98.52,59.003,99.527z
		 M77.818,58.461c-0.917,1.467-1.694,3.023-2.335,4.672c-0.642,1.648-1.145,3.434-1.511,5.355c-0.457,1.834-0.916,3.664-1.373,5.494
		c-0.367,1.922-0.732,3.893-1.099,5.904c-0.184,0.645-0.322,1.285-0.414,1.922c-0.091,0.734-0.183,1.422-0.272,2.061
		c-0.091,0.645-0.23,1.285-0.413,1.924c-0.091,0.643-0.228,1.328-0.41,2.061c0,0.09,0,0.184,0,0.275
		c-0.093,0.184-0.185,0.275-0.276,0.275c0,0.092-0.045,0.137-0.139,0.137c-0.088,0-0.18,0-0.273,0c-0.182,0-0.319,0-0.412,0
		c-0.091,0-0.184-0.045-0.274-0.137c-0.091,0-0.183-0.092-0.274-0.275c0-0.092,0-0.186,0-0.275c-0.184-0.732-0.32-1.418-0.412-2.061
		c-0.183-0.639-0.318-1.279-0.412-1.924c-0.092-0.639-0.184-1.326-0.273-2.061c-0.184-0.637-0.367-1.277-0.551-1.922
		c-0.273-2.012-0.596-3.982-0.96-5.904c-0.368-1.83-0.823-3.66-1.374-5.494c-0.365-1.832-0.869-3.615-1.512-5.355
		c-0.641-1.648-1.417-3.205-2.333-4.672c-1.008-1.463-2.151-2.881-3.434-4.256c-1.283-1.375-2.702-2.654-4.259-3.846
		c-1.555-1.098-3.203-2.195-4.945-3.295c-1.738-1.1-3.566-2.244-5.491-3.434c-0.368-0.184-0.779-0.412-1.237-0.689
		c-0.366-0.363-0.777-0.684-1.236-0.959c-0.367-0.275-0.777-0.504-1.234-0.688c-0.458-0.273-0.872-0.549-1.236-0.826
		c-0.092,0-0.183-0.043-0.275-0.135c-0.092-0.088-0.183-0.184-0.275-0.273V39.92c0-0.086,0-0.182,0-0.271V39.51v-0.137
		c0.093-0.09,0.184-0.182,0.275-0.273c0.093-0.092,0.184-0.139,0.275-0.139c0.092-0.09,0.184-0.139,0.273-0.139
		c0.091,0,0.184,0.049,0.275,0.139c0.365,0,0.778,0.047,1.236,0.139c0.365,0.092,0.733,0.137,1.098,0.137
		c0.458,0.09,0.917,0.137,1.375,0.137c0.365,0.092,0.777,0.137,1.236,0.137c0.641,0.186,1.326,0.324,2.061,0.41
		c0.639,0.188,1.327,0.326,2.059,0.414c0.732,0.092,1.42,0.186,2.061,0.275c0.732,0,1.42,0,2.059,0c1.008,0.09,1.924,0.09,2.748,0
		c0.822-0.09,1.602-0.227,2.334-0.412s1.375-0.459,1.924-0.824c0.641-0.273,1.19-0.594,1.648-0.963
		c0.914-0.732,1.74-1.645,2.471-2.744c0.732-1.008,1.327-2.199,1.785-3.572c0.551-1.461,1.054-2.883,1.512-4.256
		c0.459-1.465,0.916-2.932,1.373-4.396c0.092-0.457,0.183-0.912,0.275-1.373c0.09-0.457,0.182-0.914,0.273-1.375
		c0.183-0.455,0.32-0.91,0.412-1.371c0.184-0.457,0.322-0.871,0.412-1.236c0-0.092,0.045-0.182,0.139-0.277
		c0.09-0.088,0.136-0.18,0.136-0.271c0.091,0,0.184-0.049,0.274-0.141c0.184,0,0.32,0,0.412,0h0.137
		c0.094,0.092,0.184,0.141,0.275,0.141c0.092,0.092,0.137,0.184,0.137,0.271c0.093,0.096,0.14,0.186,0.14,0.277
		c0.091,0.365,0.228,0.779,0.41,1.236c0.092,0.461,0.229,0.916,0.413,1.371c0.09,0.461,0.182,0.918,0.272,1.375
		c0.092,0.461,0.23,0.916,0.414,1.373c0.366,1.465,0.779,2.932,1.235,4.396c0.459,1.373,0.963,2.795,1.512,4.256
		c0.548,1.373,1.145,2.564,1.784,3.572c0.733,1.1,1.558,2.012,2.473,2.744c0.458,0.369,1.008,0.689,1.648,0.963
		c0.55,0.365,1.188,0.639,1.923,0.824c0.732,0.186,1.51,0.322,2.334,0.412s1.738,0.09,2.748,0c0.731,0,1.418,0,2.059,0
		c0.641-0.09,1.326-0.184,2.061-0.275c0.641-0.088,1.328-0.227,2.061-0.414c0.732-0.086,1.464-0.225,2.197-0.41
		c0.366,0,0.777-0.045,1.236-0.137c0.366,0,0.777-0.047,1.236-0.137c0.365,0,0.73-0.045,1.096-0.137
		c0.367-0.092,0.779-0.139,1.238-0.139c0.092-0.09,0.184-0.139,0.274-0.139s0.184,0.049,0.276,0.139
		c0.091,0,0.182,0.047,0.271,0.139c0.092,0.092,0.185,0.184,0.279,0.273v0.137v0.139c0,0.09,0,0.186,0,0.271v0.141
		c-0.095,0.09-0.188,0.186-0.279,0.273c-0.09,0.092-0.181,0.135-0.271,0.135c-0.367,0.277-0.78,0.553-1.238,0.826
		c-0.365,0.184-0.778,0.412-1.236,0.688c-0.457,0.365-0.915,0.689-1.373,0.959c-0.456,0.277-0.871,0.506-1.236,0.689
		c-1.83,1.189-3.615,2.334-5.356,3.434c-1.738,1.1-3.388,2.197-4.942,3.295c-1.648,1.191-3.114,2.471-4.397,3.846
		C79.832,55.58,78.732,56.998,77.818,58.461z M121.63,86.344c-1.831,5.309-4.396,10.072-7.692,14.281
		c-3.296,4.211-7.323,7.828-12.086,10.85c-4.761,3.021-9.613,5.631-14.556,7.83c-5.037,2.197-10.21,3.98-15.52,5.355
		c-0.093-0.186-0.138-0.324-0.138-0.412c0-0.184,0-0.322,0-0.412c0-2.109,0.182-4.211,0.549-6.316
		c0.275-2.014,0.686-4.029,1.235-6.045c0.64-2.107,1.419-4.119,2.333-6.043c1.01-2.012,2.107-3.982,3.299-5.904
		c0.642-1.008,1.327-1.969,2.058-2.885c0.642-0.912,1.376-1.83,2.2-2.746c0.73-0.914,1.51-1.785,2.334-2.609
		c0.916-0.822,1.83-1.557,2.745-2.197c1.101-0.734,2.151-1.465,3.161-2.199c1.099-0.637,2.196-1.281,3.296-1.922
		c1.098-0.639,2.151-1.324,3.159-2.061c1.096-0.73,2.15-1.51,3.156-2.334c1.741-1.373,3.295-2.836,4.672-4.395
		c1.281-1.557,2.426-3.248,3.434-5.082c0.914-1.738,1.693-3.617,2.334-5.633c0.641-1.922,1.099-3.98,1.373-6.18
		c0.275-2.834,0.229-5.582-0.137-8.238c-0.275-2.654-0.917-5.266-1.922-7.828c-1.007-2.561-2.107-5.08-3.297-7.553
		c-1.1-2.564-2.244-5.084-3.434-7.557c3.021,2.016,5.678,4.35,7.965,7.006c2.289,2.563,4.26,5.445,5.906,8.65
		c1.647,3.299,3.02,6.594,4.119,9.891c1.007,3.387,1.695,6.818,2.062,10.301c0.091,0.916,0.136,1.834,0.136,2.748
		c0.092,0.912,0.137,1.832,0.137,2.744c0,1.008-0.045,2.016-0.137,3.021c0,0.916-0.045,1.922-0.136,3.023
		c-0.276,1.832-0.597,3.662-0.962,5.492C122.818,82.818,122.271,84.605,121.63,86.344z"/>
	<linearGradient id="SVGID_2_" gradientUnits="userSpaceOnUse" x1="69.0293" y1="69.0293" x2="69.0293" y2="0">
		<stop  offset="0.25" style="stop-color:#FFFFFF;stop-opacity:0"/>
		<stop  offset="1" style="stop-color:#FFFFFF"/>
	</linearGradient>
	<ellipse fill="url(#SVGID_2_)" cx="69.029" cy="34.514" rx="43.143" ry="34.516"/>
</g>
</svg>
