<?xml version="1.0" encoding="utf-8"?>
<!-- Generator: Adobe Illustrator 16.0.0, SVG Export Plug-In . SVG Version: 6.00 Build 0)  -->
<!DOCTYPE svg PUBLIC "-//W3C//DTD SVG 1.1//EN" "http://www.w3.org/Graphics/SVG/1.1/DTD/svg11.dtd">
<svg version="1.1" id="Layer_1" xmlns="http://www.w3.org/2000/svg" xmlns:xlink="http://www.w3.org/1999/xlink" x="0px" y="0px"
	 width="138.059px" height="138.059px" viewBox="0 0 138.059 138.059" enable-background="new 0 0 138.059 138.059"
	 xml:space="preserve">
<g>
	<g>
		<g>
			<circle fill="#BE432C" cx="69.029" cy="69.029" r="69.029"/>
		</g>
		<g opacity="0.5">
			<linearGradient id="SVGID_1_" gradientUnits="userSpaceOnUse" x1="69.0293" y1="138.0586" x2="69.0293" y2="0">
				<stop  offset="0" style="stop-color:#000000;stop-opacity:0"/>
				<stop  offset="1" style="stop-color:#000000"/>
			</linearGradient>
			<circle fill="url(#SVGID_1_)" cx="69.029" cy="69.029" r="69.029"/>
		</g>
	</g>
	<path d="M23.028,61.535v-0.867c0-0.082,0-0.166,0-0.248c0-0.746,0-3.27,0-7.576c0-1.816,0-4.098,0-6.826c0-2.732,0-6.002,0-9.809
		c0-1.408,0.495-2.609,1.49-3.604c0.993-1.074,2.191-1.613,3.599-1.613h1.119c0.745,0,3.309,0,7.698,0
		c1.409,0,2.607,0.539,3.602,1.613c0.992,0.994,1.489,2.195,1.489,3.604v0.99c0,0.748,0,3.313,0,7.701c0,1.82,0,4.096,0,6.826
		c0,2.734,0,6.004,0,9.809c0,1.41-0.497,2.609-1.489,3.604c-0.995,0.99-2.193,1.49-3.602,1.49h-1.241c-0.496,0-1.075,0-1.738,0
		c-1.906,0-3.849,0-5.837,0c-1.407,0-2.606-0.5-3.599-1.49C23.523,64.145,23.028,62.945,23.028,61.535z M56.178,89.719
		c-0.912,0.832-2.278,2.072-4.097,3.727c0,2.234,0,5.59,0,10.061c-0.912,0.826-2.278,2.064-4.097,3.723c-4.638,0-11.592,0-20.86,0
		c-0.913-0.828-2.277-2.068-4.097-3.723c0-6.127,0-15.355,0-27.689c0.911-0.746,2.276-1.945,4.097-3.602c7.863,0,19.66,0,35.386,0
		c0.91,0.828,2.275,2.029,4.098,3.602c0,2.316,0,5.711,0,10.18c-0.913,0.828-2.279,2.07-4.098,3.723
		C61.103,89.719,58.992,89.719,56.178,89.719z M47.612,61.535V60.42c0-0.08,0-0.166,0-0.248c0-0.828,0-3.852,0-9.064
		c0-2.234,0-4.967,0-8.195c0-3.311,0-7.24,0-11.797c0-1.408,0.496-2.607,1.489-3.596c0.994-0.996,2.192-1.492,3.601-1.492h0.993
		c0.745,0,3.229,0,7.45,0c1.408,0,2.607,0.496,3.601,1.492c0.992,0.988,1.49,2.188,1.49,3.596v1.244c0,0.912,0,3.973,0,9.188
		c0,2.154,0,4.885,0,8.195c0,3.227,0,7.158,0,11.793c0,1.41-0.498,2.609-1.49,3.604c-0.994,0.99-2.193,1.49-3.601,1.49H59.78
		c-0.417,0-0.914,0-1.49,0c-1.821,0-3.685,0-5.588,0c-1.408,0-2.607-0.5-3.601-1.49C48.108,64.145,47.612,62.945,47.612,61.535z
		 M110.934,72.215c0.911,0.828,2.276,2.029,4.098,3.602c0,6.207,0,15.438,0,27.689c-0.912,0.826-2.277,2.064-4.098,3.723
		c-3.559,0-8.898,0-16.018,0c-0.912,0.826-2.277,2.066-4.097,3.725c0,0.744,0,1.865,0,3.354c-0.912,0.826-2.278,2.068-4.097,3.721
		c-7.202,0-18.004,0-32.408,0c0-1.488,0-3.721,0-6.701c0.826,0,2.068,0,3.725,0c0.826-0.826,2.068-2.031,3.727-3.602
		c0-1.242,0-3.105,0-5.588c0.91-0.826,2.275-2.064,4.096-3.725c1.408,0,3.519,0,6.333,0c0.91-0.826,2.276-2.025,4.097-3.598
		c0-4.223,0-10.557,0-18.998c0.911-0.746,2.276-1.945,4.098-3.602C87.177,72.215,97.357,72.215,110.934,72.215z M71.823,61.535
		V60.42c0-0.08,0-0.166,0-0.248c0-0.828,0-3.852,0-9.064c0-2.234,0-4.967,0-8.195c0-3.311,0-7.24,0-11.797
		c0-1.408,0.496-2.607,1.491-3.596c0.992-0.996,2.193-1.492,3.599-1.492h0.994c0.744,0,3.185,0,7.325,0
		c1.407,0,2.608,0.496,3.601,1.492c0.994,0.988,1.49,2.188,1.49,3.596v1.244c0,0.912,0,3.973,0,9.188c0,2.154,0,4.885,0,8.195
		c0,3.227,0,7.158,0,11.793c0,1.41-0.496,2.609-1.49,3.604c-0.993,0.99-2.194,1.49-3.601,1.49H83.99c-0.415,0-0.912,0-1.488,0
		c-1.907,0-3.77,0-5.589,0c-1.406,0-2.607-0.5-3.599-1.49C72.319,64.145,71.823,62.945,71.823,61.535z M115.032,36.209v0.99
		c0,0.748,0,3.313,0,7.701c0,1.82,0,4.096,0,6.826c0,2.734,0,6.004,0,9.809c0,1.41-0.497,2.609-1.489,3.604
		c-1.077,0.99-2.317,1.49-3.725,1.49h-0.374c-0.168,0-0.372,0-0.621,0c-0.745,0-3.354,0-7.822,0c-1.411,0-2.608-0.5-3.602-1.49
		c-0.992-0.994-1.49-2.193-1.49-3.604v-0.867c0-0.082,0-0.166,0-0.248c0-0.746,0-3.27,0-7.576c0-1.816,0-4.098,0-6.826
		c0-2.732,0-6.002,0-9.809c0-1.408,0.498-2.609,1.49-3.604c0.994-1.074,2.191-1.613,3.602-1.613h2.979c1.988,0,3.932,0,5.837,0
		c1.408,0,2.648,0.539,3.725,1.613C114.535,33.6,115.032,34.801,115.032,36.209z"/>
	<linearGradient id="SVGID_2_" gradientUnits="userSpaceOnUse" x1="69.0288" y1="69.0293" x2="69.0288" y2="0.0195">
		<stop  offset="0.25" style="stop-color:#FFFFFF;stop-opacity:0"/>
		<stop  offset="1" style="stop-color:#FFFFFF"/>
	</linearGradient>
	<ellipse fill="url(#SVGID_2_)" cx="69.029" cy="34.525" rx="43.131" ry="34.504"/>
</g>
</svg>
