<?xml version="1.0" encoding="utf-8"?>
<!-- Generator: Adobe Illustrator 16.0.0, SVG Export Plug-In . SVG Version: 6.00 Build 0)  -->
<!DOCTYPE svg PUBLIC "-//W3C//DTD SVG 1.1//EN" "http://www.w3.org/Graphics/SVG/1.1/DTD/svg11.dtd">
<svg version="1.1" id="Layer_1" xmlns="http://www.w3.org/2000/svg" xmlns:xlink="http://www.w3.org/1999/xlink" x="0px" y="0px"
	 width="138.059px" height="138.088px" viewBox="0 0 138.059 138.088" enable-background="new 0 0 138.059 138.088"
	 xml:space="preserve">
<g>
	<g>
		<g>
			<circle fill="#F56A39" cx="69.029" cy="69.059" r="69.029"/>
		</g>
		<g opacity="0.5">
			<linearGradient id="SVGID_1_" gradientUnits="userSpaceOnUse" x1="69.0293" y1="138.0879" x2="69.0293" y2="0.0293">
				<stop  offset="0" style="stop-color:#000000;stop-opacity:0"/>
				<stop  offset="1" style="stop-color:#000000"/>
			</linearGradient>
			<circle fill="url(#SVGID_1_)" cx="69.029" cy="69.059" r="69.029"/>
		</g>
	</g>
	<path d="M123.978,77.701c-1.473,6.359-3.78,12.164-6.911,17.416c-3.134,5.348-7.004,10.094-11.612,14.24
		c-4.793,4.238-10.002,7.555-15.62,9.953c-5.717,2.395-11.891,3.916-18.526,4.561c-0.551,0-1.153,0.045-1.797,0.139
		c-0.551,0-1.105,0-1.658,0c-0.277,0-0.554,0-0.83,0c-0.369,0-0.692,0-0.967,0c-0.829-0.094-1.707-0.139-2.626-0.139
		c-0.829-0.09-1.661-0.188-2.489-0.277v-0.135v-0.141v-0.277c0-0.184,0-0.461,0-0.828c1.937,0.367,3.872,0.598,5.806,0.689
		c1.937,0,3.823-0.135,5.669-0.412c1.842-0.371,3.684-0.83,5.528-1.383c1.937-0.555,3.825-1.154,5.669-1.797
		c1.013-0.369,1.888-0.828,2.625-1.383c0.738-0.646,1.292-1.338,1.659-2.076c0.46-0.734,0.691-1.563,0.691-2.486
		c0.091-0.922-0.048-1.887-0.416-2.904c-0.187-0.459-0.415-0.875-0.69-1.244c-0.187-0.363-0.415-0.734-0.692-1.105
		c-0.275-0.365-0.553-0.689-0.829-0.967c-0.278-0.367-0.461-0.779-0.553-1.244c-0.276-0.459-0.553-0.967-0.83-1.521
		c-0.187-0.461-0.368-0.967-0.552-1.52c-0.187-0.551-0.325-1.104-0.415-1.66c-0.187-0.551-0.276-1.105-0.276-1.658
		c0-1.104,0.184-2.119,0.553-3.041c0.275-0.828,0.829-1.66,1.658-2.486c0.83-0.645,1.66-1.293,2.487-1.938
		c0.83-0.643,1.661-1.197,2.49-1.658c-0.83,0-1.661,0.047-2.49,0.139c-0.828,0-1.613,0-2.351,0c-0.738,0.186-1.52,0.367-2.348,0.551
		c-0.739,0.188-1.521,0.463-2.351,0.832c-0.83,0.186-1.521,0.506-2.073,0.965c-0.647,0.373-1.2,0.832-1.661,1.383
		c-0.553,0.553-1.105,1.107-1.657,1.66c-0.553,0.553-1.06,1.15-1.522,1.797c0.091-1.287,0.046-2.535-0.138-3.73
		c-0.186-1.199-0.462-2.398-0.828-3.596c-0.371-1.107-0.97-2.072-1.799-2.9c-0.829-0.832-1.843-1.57-3.04-2.217
		c-0.188-0.088-0.369-0.137-0.554-0.137c-0.092-0.09-0.185-0.186-0.275-0.273c-0.092,0-0.23,0-0.416,0
		c-0.09-0.092-0.231-0.141-0.415-0.141c-0.369,0-0.553-0.227-0.553-0.689c-0.093-0.367,0-0.973,0.275-1.799
		c0.09-0.736,0.187-1.334,0.278-1.797c0.184-0.461,0.277-0.738,0.277-0.828c0.275-0.645,0.599-1.246,0.968-1.801
		c0.366-0.553,0.781-1.055,1.244-1.52c0.368-0.459,0.782-0.918,1.245-1.383c0.459-0.459,0.966-0.92,1.52-1.383
		c-0.921,0.094-1.844,0.232-2.765,0.416c-0.921,0.188-1.844,0.418-2.766,0.693c-0.921,0.273-1.796,0.598-2.625,0.969
		c-0.829,0.365-1.658,0.779-2.489,1.242c-0.737,0.461-1.474,0.965-2.211,1.52c-0.738,0.463-1.476,1.018-2.212,1.658
		c-0.739,0.555-1.336,1.199-1.798,1.938c-0.46,0.74-0.782,1.52-0.965,2.348c-0.188,1.018-0.188,1.938,0,2.764
		c0.183,0.926,0.597,1.662,1.242,2.213c0.737,0.646,1.383,1.295,1.937,1.938c0.553,0.643,1.059,1.336,1.521,2.074
		c0.641,0.736,0.967,1.518,0.967,2.35c0,0.92-0.277,1.795-0.83,2.623c-0.463,0.924-0.967,1.754-1.521,2.49
		c-0.553,0.645-1.106,1.244-1.659,1.797c0.09-0.918,0.09-1.748,0-2.488c-0.092-0.734-0.277-1.332-0.553-1.799
		c-0.275-0.459-0.738-0.873-1.383-1.242c-0.552-0.461-1.292-0.875-2.212-1.244c-0.738-0.277-1.474-0.504-2.21-0.691
		c-0.741-0.184-1.522-0.32-2.354-0.412c-0.736,0-1.519,0-2.347,0c-0.741,0-1.522,0-2.351,0c0.829,0.461,1.705,0.92,2.625,1.381
		c0.83,0.465,1.66,0.967,2.489,1.52c0.829,0.463,1.382,1.107,1.658,1.936c0.368,0.832,0.505,1.799,0.416,2.906
		c-0.091,0.922-0.416,1.795-0.968,2.623c-0.464,0.83-1.154,1.615-2.075,2.352c-0.919,0.83-1.52,1.705-1.794,2.625
		c-0.187,0.832-0.094,1.752,0.274,2.766c0.553,1.568,1.382,2.904,2.489,4.008c1.106,1.107,2.44,1.98,4.009,2.627
		c1.657,0.643,3.27,1.195,4.838,1.66c1.568,0.553,3.13,0.918,4.7,1.105v0.141v0.137v0.277c0,0.182,0,0.459,0,0.826
		c-2.304-0.367-4.61-0.92-6.911-1.658c-2.212-0.643-4.425-1.43-6.637-2.352c-2.211-0.918-4.333-1.887-6.359-2.9
		c-2.027-1.014-3.962-2.119-5.806-3.318c-2.674-1.746-5.115-3.639-7.328-5.668c-2.212-2.027-4.194-4.195-5.943-6.498
		c-1.751-2.299-3.273-4.789-4.562-7.463c-1.383-2.672-2.489-5.482-3.318-8.436c1.289,1.385,2.715,2.723,4.285,4.01
		c1.66,1.201,3.504,2.445,5.53,3.734c1.935,1.197,3.683,2.121,5.253,2.764c1.473,0.648,2.765,0.971,3.872,0.971
		c-1.569-2.027-3.091-4.195-4.563-6.502c-1.476-2.301-2.951-4.697-4.424-7.189c-1.474-2.574-2.487-5.156-3.042-7.74
		c-0.554-2.576-0.644-5.203-0.275-7.881c0.183-1.287,0.414-2.486,0.69-3.59c0.185-1.199,0.463-2.305,0.831-3.318
		c0.366-1.105,0.78-2.166,1.243-3.182c0.554-1.012,1.245-2.07,2.075-3.18c0.737-1.012,1.521-2.021,2.349-3.039
		c0.92-1.012,1.844-1.982,2.764-2.902c0.921-0.92,1.89-1.799,2.906-2.629c1.013-0.828,2.026-1.703,3.04-2.623
		c-1.014,1.381-1.843,2.762-2.488,4.145c-0.739,1.291-1.335,2.627-1.796,4.01c-0.462,1.291-0.74,2.676-0.83,4.148
		c-0.092,1.475,0.044,2.994,0.416,4.561c0.09,0.738,0.321,1.52,0.689,2.352c0.278,0.738,0.691,1.518,1.246,2.348
		c0.553,0.922,1.056,1.707,1.519,2.35c0.461,0.645,0.921,1.244,1.383,1.799c0.46,0.555,1.014,1.105,1.659,1.656
		c0.552,0.555,1.152,1.107,1.796,1.66c0.646,0.553,1.292,1.059,1.936,1.52c0.739,0.463,1.429,0.834,2.074,1.109
		c-0.275-0.553-0.553-1.199-0.829-1.936c-0.277-0.643-0.506-1.291-0.691-1.934c-0.277-0.646-0.507-1.338-0.691-2.076
		c-0.277-0.645-0.507-1.289-0.692-1.936c-0.461-1.195-0.739-2.441-0.828-3.734c-0.094-1.289-0.049-2.576,0.137-3.869
		c0.185-1.475,0.504-2.811,0.966-4.01c0.462-1.195,1.057-2.301,1.799-3.316c0.92-1.107,1.842-2.164,2.764-3.18
		c0.92-0.922,1.936-1.842,3.041-2.764c1.015-0.922,2.026-1.844,3.042-2.768c1.106-0.92,2.211-1.842,3.318-2.764
		c0.829-0.738,1.798-1.52,2.902-2.352c1.109-0.826,2.303-1.703,3.596-2.625c1.289-1.014,2.301-2.074,3.041-3.176
		c0.829-1.109,1.333-2.26,1.521-3.459c0.184-1.475,0.184-2.855,0-4.146c-0.278-1.291-0.784-2.49-1.521-3.596
		c-0.645-1.195-1.382-2.396-2.211-3.596c-0.74-1.104-1.521-2.209-2.351-3.318c2.854,0.924,5.437,2.031,7.742,3.318
		c2.302,1.387,4.376,2.953,6.221,4.701c1.748,1.846,3.318,3.869,4.7,6.082c1.383,2.123,2.579,4.426,3.594,6.912
		c0.919,2.676,1.748,5.346,2.49,8.018c0.642,2.676,1.149,5.393,1.518,8.158c0.367,2.674,0.462,5.439,0.277,8.293
		c-0.185,2.764-0.6,5.623-1.243,8.57c1.383-0.09,2.81-0.227,4.285-0.412c1.473-0.188,2.947-0.416,4.423-0.693
		c1.385-0.365,2.718-0.83,4.01-1.383c1.381-0.553,2.671-1.193,3.87-1.936c0.738-0.365,1.382-0.779,1.935-1.244
		c0.646-0.363,1.292-0.736,1.938-1.105c0.458-0.459,0.967-0.918,1.518-1.383c0.555-0.551,1.059-1.104,1.521-1.658
		c0.462-0.551,0.832-1.107,1.106-1.66c0.368-0.549,0.643-1.105,0.83-1.658c0.277-0.641,0.461-1.289,0.553-1.934
		c0.183-0.553,0.322-1.152,0.415-1.797c0.552,1.016,1.058,2.027,1.52,3.041c0.554,1.105,1.014,2.166,1.383,3.18
		c0.461,1.104,0.783,2.209,0.967,3.316c0.185,1.105,0.278,2.264,0.278,3.457c-0.094,1.014-0.232,1.934-0.417,2.764
		c-0.185,0.828-0.463,1.66-0.829,2.486c-0.277,0.74-0.601,1.523-0.966,2.354c-0.37,0.83-0.74,1.656-1.107,2.49
		c-0.922,1.842-2.073,3.502-3.456,4.973c-1.382,1.57-2.951,2.951-4.7,4.148c-1.751,1.293-3.505,2.441-5.254,3.457
		c-1.751,1.104-3.549,2.074-5.391,2.902c0.737,0.275,1.473,0.506,2.211,0.691c0.83,0.092,1.706,0.092,2.627,0
		c0.828,0,1.704-0.092,2.626-0.279c0.92-0.184,1.887-0.412,2.902-0.688c1.843-0.553,3.685-1.244,5.531-2.072
		c1.84-0.832,3.683-1.801,5.529-2.904c1.842-1.107,3.456-2.213,4.837-3.318C121.907,80.098,123.058,78.898,123.978,77.701z"/>
	<linearGradient id="SVGID_2_" gradientUnits="userSpaceOnUse" x1="69.0288" y1="69.0586" x2="69.0288" y2="0">
		<stop  offset="0.25" style="stop-color:#FFFFFF;stop-opacity:0"/>
		<stop  offset="1" style="stop-color:#FFFFFF"/>
	</linearGradient>
	<ellipse fill="url(#SVGID_2_)" cx="69.029" cy="34.529" rx="43.161" ry="34.529"/>
</g>
</svg>
