<?xml version="1.0" encoding="utf-8"?>
<!-- Generator: Adobe Illustrator 16.0.0, SVG Export Plug-In . SVG Version: 6.00 Build 0)  -->
<!DOCTYPE svg PUBLIC "-//W3C//DTD SVG 1.1//EN" "http://www.w3.org/Graphics/SVG/1.1/DTD/svg11.dtd">
<svg version="1.1" id="Layer_1" xmlns="http://www.w3.org/2000/svg" xmlns:xlink="http://www.w3.org/1999/xlink" x="0px" y="0px"
	 width="138.059px" height="138.059px" viewBox="0 0 138.059 138.059" enable-background="new 0 0 138.059 138.059"
	 xml:space="preserve">
<g>
	<g>
		<g>
			<circle fill="#78C850" cx="69.029" cy="69.029" r="69.029"/>
		</g>
		<g opacity="0.5">
			<linearGradient id="SVGID_1_" gradientUnits="userSpaceOnUse" x1="69.0293" y1="138.0586" x2="69.0293" y2="0">
				<stop  offset="0" style="stop-color:#000000;stop-opacity:0"/>
				<stop  offset="1" style="stop-color:#000000"/>
			</linearGradient>
			<circle fill="url(#SVGID_1_)" cx="69.029" cy="69.029" r="69.029"/>
		</g>
	</g>
	<path opacity="0.25" d="M50.851,53.936c0.079,0,0.203,0,0.369,0c0.082,0,0.165,0,0.248,0c-0.166,0-0.329,0-0.494,0
		c-0.167,0-0.329,0-0.494,0h0.123C50.684,53.936,50.768,53.936,50.851,53.936z M59,85.182c0.165,0,0.288,0.043,0.372,0.123
		c0.164,0.082,0.287,0.123,0.37,0.123v0.125c-0.083-0.082-0.206-0.166-0.37-0.248C59.288,85.225,59.165,85.182,59,85.182z
		 M62.705,69.373c0.081,0,0.165,0.043,0.248,0.125h0.123v0.123c-0.082-0.082-0.166-0.123-0.247-0.123
		C62.829,69.416,62.786,69.373,62.705,69.373z M65.546,86.662v0.125c0,0.166,0,0.289,0,0.371c0,0.166,0,0.328,0,0.494h-0.123
		c0-0.166,0.041-0.328,0.123-0.494C65.546,86.992,65.546,86.83,65.546,86.662z M67.646,57.148h0.124v0.123v-0.123H67.646z
		 M68.511,69.621c0.08-0.082,0.123-0.166,0.123-0.248c0,0.082,0,0.166,0,0.248s0,0.166,0,0.246h-0.123
		C68.511,69.787,68.511,69.703,68.511,69.621z M72.338,56.652c-0.081,0-0.123,0.043-0.123,0.125h-0.123
		c0.08-0.328,0.204-0.66,0.37-0.988c0.081-0.328,0.204-0.658,0.37-0.988c-0.082,0.33-0.206,0.66-0.37,0.988
		C72.38,56.035,72.338,56.326,72.338,56.652z M79.007,38.129c-0.329,0.494-0.617,0.947-0.863,1.357
		c-0.247,0.414-0.538,0.865-0.865,1.359c0.247-0.328,0.494-0.658,0.741-0.988c0.164-0.326,0.37-0.658,0.618-0.988
		c0.079-0.08,0.123-0.203,0.123-0.371C78.841,38.418,78.926,38.295,79.007,38.129z M96.175,54.553H96.05
		c-0.082,0-0.166-0.039-0.247-0.123C95.968,54.514,96.091,54.553,96.175,54.553c0.079,0,0.163,0.045,0.246,0.125h-0.123
		C96.214,54.678,96.175,54.637,96.175,54.553z M102.102,84.688c-0.494-0.164-0.947-0.287-1.358-0.371
		c-0.495-0.164-0.988-0.287-1.481-0.371c0.327,0.084,0.697,0.207,1.11,0.371c0.328,0.084,0.658,0.207,0.988,0.371
		c0.165,0,0.288,0,0.371,0C101.896,84.688,102.02,84.688,102.102,84.688z M103.09,70.238h-0.124c-0.082,0-0.166,0-0.247,0
		c-0.082-0.08-0.205-0.166-0.37-0.248c-0.082-0.08-0.166-0.164-0.247-0.246c0.165,0.082,0.328,0.166,0.493,0.246
		C102.76,70.072,102.923,70.158,103.09,70.238z"/>
	<path d="M121.595,78.002c0,0.184,0,0.404,0,0.676v0.137c0,0.357,0,0.674,0,0.943c0,1.979-0.182,3.824-0.539,5.533
		c-0.453,1.709-1.08,3.328-1.889,4.857c-0.811,1.533-1.844,2.971-3.104,4.32c-1.262,1.438-2.747,2.744-4.454,3.914
		c-1.439,1.168-3.016,2.248-4.724,3.236c-1.62,0.902-3.287,1.709-4.993,2.432c-1.801,0.809-3.599,1.531-5.4,2.158
		c-1.8,0.629-3.597,1.168-5.397,1.619c-1.979,0.539-3.914,0.994-5.803,1.352c-1.889,0.451-3.779,0.898-5.668,1.348
		c-1.888,0.359-3.779,0.723-5.669,1.08c-1.979,0.268-3.96,0.451-5.938,0.539c0.18,1.709,0.407,3.326,0.674,4.859
		c0.181,1.619,0.406,3.148,0.675,4.588h-0.404c-0.089,0-0.182,0-0.271,0c-0.451,0-2.113,0-4.991,0c-1.263,0-2.791,0-4.589,0
		c-1.802,0-3.914,0-6.344,0c-0.542-1.439-0.992-3.016-1.35-4.725c-0.452-1.707-0.765-3.551-0.946-5.531
		c-2.34-0.451-4.678-0.99-7.017-1.621c-2.43-0.719-4.771-1.529-7.018-2.428c-2.34-0.9-4.499-1.977-6.477-3.238
		c-1.98-1.168-3.779-2.518-5.399-4.049c-2.159-1.891-3.868-3.914-5.128-6.074c-1.262-2.246-2.071-4.588-2.43-7.018
		c-0.09-0.717-0.181-1.395-0.27-2.025c-0.09-0.627-0.136-1.258-0.136-1.889c-0.088-0.99-0.134-1.979-0.134-2.969
		c0-0.896,0.046-1.801,0.134-2.699c0.09-1.889,0.316-3.777,0.676-5.668c0.627-3.51,1.8-6.836,3.509-9.986
		c1.708-3.238,3.957-6.297,6.748-9.178c2.699-2.881,5.487-5.533,8.367-7.963c2.968-2.43,5.938-4.633,8.908-6.613
		c3.147-2.16,6.343-4.229,9.582-6.209c3.327-1.977,6.658-3.867,9.986-5.666c3.51-1.799,7.017-3.463,10.525-4.992
		c3.51-1.621,7.064-3.15,10.664-4.59c2.516,3.598,5.171,7.152,7.961,10.66c2.788,3.512,5.667,6.93,8.637,10.256
		c2.968,3.424,5.578,6.975,7.828,10.662c2.339,3.781,4.363,7.693,6.073,11.742c0.719,1.619,1.395,3.24,2.024,4.859
		c0.626,1.709,1.214,3.373,1.753,4.992c0.541,1.35,0.947,2.701,1.216,4.051C121.326,75.123,121.507,76.566,121.595,78.002z
		 M102.702,67.072c0.088,0,0.134,0.047,0.134,0.133c0.089,0,0.181,0,0.271,0c-0.54-0.539-1.169-1.031-1.89-1.482
		c-0.81-0.451-1.666-0.855-2.563-1.215c-0.81-0.357-1.666-0.676-2.563-0.945c-0.812-0.27-1.621-0.494-2.43-0.674
		c-0.809-0.18-1.62-0.359-2.43-0.541c-0.809-0.18-1.619-0.357-2.43-0.541c-0.808-0.178-1.665-0.27-2.562-0.27
		c-0.81-0.086-1.666-0.086-2.565,0c-1.709,0.092-3.374,0.227-4.994,0.404c-1.619,0.271-3.195,0.541-4.724,0.811
		c-1.35,0.271-2.653,0.721-3.913,1.352c-1.262,0.539-2.52,1.213-3.779,2.023c-0.09,0.09-0.224,0.18-0.404,0.27
		c-0.183,0-0.317,0.049-0.405,0.135c0.088-0.451,0.179-0.945,0.271-1.484c0.18-0.449,0.315-0.943,0.403-1.484
		c0.18-0.451,0.316-0.947,0.405-1.484c0.089-0.449,0.224-0.898,0.405-1.352c1.8-1.977,3.779-3.643,5.938-4.992
		c2.247-1.438,4.676-2.607,7.288-3.508c1.799-0.629,3.689-1.125,5.667-1.484c1.889-0.359,3.823-0.539,5.804-0.539
		c0.449,0,0.943,0,1.484,0c0.449,0,0.944,0,1.485,0c0.27,0,0.492,0,0.674,0c0.271,0,0.54,0.045,0.812,0.135
		c-0.092-0.09-0.183-0.135-0.271-0.135l-0.135-0.137c0.087,0,0.18,0,0.271,0h0.136c-0.541-0.27-1.082-0.494-1.621-0.676
		c-0.54-0.27-1.08-0.492-1.618-0.674c-0.542-0.18-1.128-0.359-1.756-0.539c-0.54-0.088-1.126-0.18-1.754-0.27
		c-1.261-0.18-2.52-0.271-3.777-0.271c-1.263,0-2.564,0.047-3.915,0.137c-1.17,0.088-2.296,0.225-3.374,0.404
		c-1.17,0.27-2.249,0.586-3.24,0.943c-0.809,0.27-1.573,0.631-2.293,1.082c-0.81,0.359-1.532,0.809-2.159,1.346
		c-0.182,0.092-0.36,0.186-0.54,0.273c-0.27,0.09-0.495,0.223-0.676,0.404c0.541-1.709,1.125-3.375,1.755-4.994
		c0.54-1.707,1.125-3.373,1.754-4.992c0.45-1.17,0.897-2.34,1.349-3.51c0.45-1.168,0.897-2.383,1.35-3.645
		c0.18-0.451,0.404-0.947,0.675-1.484c0.179-0.539,0.357-1.031,0.539-1.484c-0.089,0.09-0.135,0.184-0.135,0.27
		c-0.088,0.09-0.182,0.184-0.27,0.27c0.088-0.086,0.135-0.223,0.135-0.404c0-0.088,0.046-0.18,0.135-0.27
		c-1.261,1.619-2.475,3.285-3.642,4.996c-1.082,1.615-2.16,3.328-3.24,5.125c-0.899,1.531-1.755,3.107-2.564,4.727
		c-0.81,1.527-1.532,3.102-2.159,4.719c-0.09,0.186-0.181,0.363-0.271,0.543c-0.089,0.18-0.181,0.357-0.269,0.539
		c-0.359-0.27-0.765-0.539-1.213-0.809c-0.453-0.273-0.946-0.541-1.485-0.811c-0.63-0.357-1.08-0.629-1.349-0.809
		c-0.361-0.184-0.588-0.271-0.676-0.271c-1.08-0.541-2.205-0.945-3.374-1.215c-1.169-0.359-2.383-0.586-3.643-0.676
		c-1.08-0.088-2.208-0.088-3.375,0c-1.08,0.09-2.114,0.361-3.104,0.811c-0.182,0.09-0.359,0.135-0.54,0.135
		c-0.089,0-0.225,0.049-0.405,0.135h0.135h0.134c0,0.09-0.046,0.137-0.134,0.137h-0.135c0.898,0.182,1.754,0.357,2.565,0.539
		c0.809,0.09,1.664,0.27,2.562,0.541c0.811,0.18,1.575,0.449,2.296,0.809c0.72,0.451,1.438,0.945,2.158,1.484
		c0.628,0.451,1.26,0.898,1.89,1.348c0.628,0.543,1.215,1.082,1.756,1.621c0.54,0.541,1.032,1.17,1.484,1.887
		c0.54,0.723,0.945,1.441,1.214,2.164l-0.134,0.402c-0.09,0.271-0.452,1.213-1.08,2.836c-0.183,0.537-0.317,1.033-0.406,1.484
		c-0.179,0.539-0.27,1.033-0.27,1.484v0.135c-0.088,0-0.134,0.047-0.134,0.135c-0.54-0.357-1.081-0.721-1.619-1.08
		c-0.453-0.27-0.946-0.539-1.485-0.809s-1.08-0.494-1.619-0.676c-0.63-0.27-1.263-0.494-1.889-0.674
		c-0.631-0.273-1.306-0.449-2.025-0.541c-0.723-0.18-1.486-0.27-2.295-0.27c-0.81-0.088-1.619-0.137-2.428-0.137
		c-0.723,0-1.397,0-2.026,0c-0.899,0.092-1.708,0.184-2.428,0.271c-0.81,0.182-1.575,0.361-2.295,0.539
		c-0.452,0.092-0.99,0.227-1.619,0.406c-0.541,0.268-1.169,0.586-1.889,0.945c-0.09,0.088-0.226,0.135-0.405,0.135
		c-0.181,0.088-0.359,0.182-0.54,0.27c0.087,0,0.181,0,0.27,0h0.134h-0.134c-0.089,0.09-0.182,0.135-0.27,0.135
		c2.429-0.088,4.724-0.045,6.882,0.135c2.16,0.27,4.185,0.676,6.073,1.215c1.801,0.629,3.462,1.529,4.995,2.699
		c1.617,1.262,3.103,2.787,4.452,4.59c-0.27,0.896-0.494,1.799-0.674,2.697c-0.181,0.811-0.358,1.666-0.539,2.564
		c-0.09,0.723-0.135,1.484-0.135,2.293c-0.09,0.723-0.09,1.441,0,2.16c0,0.088,0,0.182,0,0.271c-0.09,0.088-0.134,0.18-0.134,0.268
		c-0.901-0.451-1.803-0.898-2.7-1.35c-0.899-0.449-1.801-0.898-2.699-1.35c-0.992-0.447-1.979-0.809-2.969-1.078
		c-0.992-0.27-2.023-0.492-3.105-0.676c-1.078-0.182-2.157-0.268-3.238-0.268c-1.079,0-2.249,0.086-3.507,0.268
		c-0.991,0.09-1.938,0.27-2.837,0.539c-0.99,0.27-1.843,0.723-2.563,1.35c-0.091,0.09-0.226,0.135-0.406,0.135
		c-0.089,0.092-0.225,0.182-0.404,0.27h0.135h0.135l-0.135,0.137h-0.135h0.135h0.539c1.261,0,2.43,0.047,3.511,0.137
		c1.167,0.088,2.246,0.223,3.239,0.402c1.078,0.184,2.205,0.496,3.374,0.945c1.079,0.359,2.157,0.811,3.239,1.35
		c0.896,0.451,1.841,0.99,2.833,1.619c0.899,0.631,1.798,1.262,2.699,1.891c0.809,0.811,1.619,1.574,2.43,2.293
		c0.719,0.811,1.483,1.574,2.293,2.295v0.271c0,0.088,0.045,0.629,0.136,1.617c0.087,1.17,0.222,2.43,0.405,3.779
		c0.269,1.262,0.54,2.609,0.809,4.049c0.27,1.441,0.765,2.748,1.485,3.914c0.627,1.078,1.53,2.025,2.699,2.834h0.135v0.135
		c0.086,0,0.134-0.045,0.134-0.135h0.135v-0.135c-0.089-1.168-0.135-2.34-0.135-3.508c0-1.17,0-2.342,0-3.51
		c-0.089-1.168-0.089-2.34,0-3.51c0-1.08,0-2.158,0-3.238c1.168-1.35,2.431-2.564,3.779-3.643c1.35-1.082,2.744-2.025,4.184-2.836
		c1.35-0.898,2.833-1.709,4.454-2.428c1.62-0.721,3.327-1.35,5.127-1.891c1.621-0.539,3.328-0.898,5.129-1.08
		c1.799-0.268,3.644-0.406,5.534-0.406h0.134h0.54c1.436,0,2.878,0,4.318,0c1.438,0.092,2.879,0.139,4.32,0.139
		c0.449,0,0.942,0.045,1.484,0.133c0.541,0,1.079,0.047,1.62,0.135c-0.09-0.088-0.183-0.135-0.271-0.135
		c-0.09,0-0.183-0.045-0.27-0.133c0.087,0,0.18,0,0.27,0c0.088,0,0.223,0,0.405,0c-1.802-0.813-3.644-1.439-5.535-1.893
		c-1.888-0.539-3.778-0.896-5.666-1.08c-1.891-0.178-3.78-0.27-5.67-0.27c-1.889,0-3.732,0.049-5.532,0.137
		c-1.621,0.09-3.24,0.316-4.859,0.674c-1.531,0.27-3.104,0.629-4.723,1.08c-1.439,0.453-2.789,0.992-4.049,1.619
		c-1.169,0.721-2.25,1.531-3.239,2.43c-0.089,0.09-0.182,0.135-0.27,0.135c-0.181,0.09-0.315,0.182-0.406,0.27
		c0.091-0.896,0.181-1.754,0.271-2.563c0.088-0.898,0.223-1.801,0.405-2.701c0.089-0.896,0.224-1.801,0.406-2.699
		c0.087-0.898,0.222-1.754,0.404-2.563c1.079-1.166,2.294-2.207,3.644-3.104c1.26-0.898,2.653-1.709,4.183-2.43
		c1.438-0.723,2.923-1.352,4.454-1.891c1.529-0.541,3.057-0.988,4.589-1.35c1.978-0.449,3.913-0.764,5.804-0.943
		c1.888-0.18,3.731-0.225,5.532-0.137c1.35,0.09,2.699,0.227,4.049,0.406c1.438,0.182,2.879,0.404,4.319,0.674
		c0.449,0.092,0.897,0.182,1.35,0.27c0.54,0.092,1.034,0.225,1.485,0.406l-0.136-0.137C102.747,67.205,102.702,67.16,102.702,67.072
		z M45.885,49.258c0.086,0,0.222,0,0.404,0c0.089,0,0.179,0,0.271,0c-0.182,0-0.36,0-0.541,0c-0.183,0-0.359,0-0.54,0h0.134
		C45.703,49.258,45.794,49.258,45.885,49.258z M54.79,83.402c0.181,0,0.315,0.045,0.408,0.133c0.179,0.092,0.313,0.137,0.404,0.137
		v0.135c-0.091-0.088-0.226-0.18-0.404-0.271C55.105,83.447,54.971,83.402,54.79,83.402z M58.839,66.127
		c0.089,0,0.18,0.047,0.272,0.135h0.134v0.135c-0.09-0.09-0.181-0.135-0.27-0.135C58.976,66.174,58.928,66.127,58.839,66.127z
		 M61.944,85.02v0.135c0,0.182,0,0.32,0,0.406c0,0.184,0,0.361,0,0.541H61.81c0-0.18,0.045-0.357,0.135-0.541
		C61.944,85.381,61.944,85.203,61.944,85.02z M64.239,52.766h0.135V52.9v-0.135H64.239z M65.184,66.396
		c0.088-0.09,0.135-0.18,0.135-0.27c0,0.09,0,0.18,0,0.27s0,0.184,0,0.27h-0.135C65.184,66.58,65.184,66.486,65.184,66.396z
		 M69.366,52.227c-0.089,0-0.134,0.045-0.134,0.135h-0.135c0.088-0.359,0.223-0.721,0.404-1.08c0.09-0.359,0.224-0.719,0.406-1.078
		c-0.09,0.359-0.227,0.719-0.406,1.078C69.412,51.549,69.366,51.869,69.366,52.227z M76.654,31.982
		c-0.36,0.539-0.675,1.037-0.943,1.484c-0.271,0.453-0.589,0.943-0.946,1.484c0.269-0.355,0.54-0.721,0.81-1.08
		c0.18-0.355,0.404-0.719,0.675-1.078c0.086-0.088,0.134-0.223,0.134-0.406C76.473,32.301,76.566,32.164,76.654,31.982z
		 M95.415,49.932h-0.137c-0.089,0-0.182-0.045-0.27-0.135C95.189,49.887,95.324,49.932,95.415,49.932
		c0.087,0,0.177,0.047,0.269,0.135h-0.135C95.458,50.066,95.415,50.02,95.415,49.932z M101.892,82.863
		c-0.541-0.182-1.036-0.316-1.485-0.406c-0.541-0.18-1.08-0.314-1.618-0.406c0.357,0.092,0.762,0.227,1.213,0.406
		c0.359,0.09,0.719,0.225,1.081,0.406c0.18,0,0.314,0,0.405,0C101.668,82.863,101.802,82.863,101.892,82.863z M102.972,67.072
		h-0.136c-0.088,0-0.181,0-0.269,0c-0.09-0.088-0.225-0.18-0.405-0.271c-0.089-0.088-0.181-0.18-0.27-0.27
		c0.18,0.09,0.358,0.182,0.539,0.27C102.611,66.893,102.79,66.984,102.972,67.072z"/>
	<linearGradient id="SVGID_2_" gradientUnits="userSpaceOnUse" x1="69.0293" y1="69.0293" x2="69.0293" y2="0">
		<stop  offset="0.25" style="stop-color:#FFFFFF;stop-opacity:0"/>
		<stop  offset="1" style="stop-color:#FFFFFF"/>
	</linearGradient>
	<ellipse fill="url(#SVGID_2_)" cx="69.029" cy="34.514" rx="43.143" ry="34.516"/>
</g>
</svg>
