<?xml version="1.0" encoding="utf-8"?>
<!-- Generator: Adobe Illustrator 16.0.0, SVG Export Plug-In . SVG Version: 6.00 Build 0)  -->
<!DOCTYPE svg PUBLIC "-//W3C//DTD SVG 1.1//EN" "http://www.w3.org/Graphics/SVG/1.1/DTD/svg11.dtd">
<svg version="1.1" id="Layer_1" xmlns="http://www.w3.org/2000/svg" xmlns:xlink="http://www.w3.org/1999/xlink" x="0px" y="0px"
	 width="138.059px" height="138.059px" viewBox="0 0 138.059 138.059" enable-background="new 0 0 138.059 138.059"
	 xml:space="preserve">
<g>
	<g>
		<g>
			<circle fill="#DFC452" cx="69.029" cy="69.029" r="69.029"/>
		</g>
		<g opacity="0.5">
			<linearGradient id="SVGID_1_" gradientUnits="userSpaceOnUse" x1="69.0293" y1="138.0586" x2="69.0293" y2="0">
				<stop  offset="0" style="stop-color:#000000;stop-opacity:0"/>
				<stop  offset="1" style="stop-color:#000000"/>
			</linearGradient>
			<circle fill="url(#SVGID_1_)" cx="69.029" cy="69.029" r="69.029"/>
		</g>
	</g>
	<g>
		<polygon points="41.211,68.232 38.299,73.277 42.674,80.859 47.05,88.438 49.962,93.482 55.79,93.482 82.269,93.482 
			88.097,93.482 91.011,88.438 95.386,80.859 99.762,73.277 96.849,68.232 		"/>
		<polygon points="115.916,35.208 22.144,35.208 19.229,40.254 23.608,47.834 27.983,55.417 30.896,60.461 36.724,60.461 
			101.336,60.461 107.163,60.461 110.079,55.417 114.455,47.834 118.83,40.254 		"/>
		<polygon points="60.278,101.253 57.364,106.301 61.74,113.881 66.117,121.461 69.03,126.51 71.943,121.461 76.32,113.881 
			80.694,106.301 77.781,101.253 		"/>
	</g>
	<linearGradient id="SVGID_2_" gradientUnits="userSpaceOnUse" x1="69.0293" y1="69.0313" x2="69.0293" y2="0">
		<stop  offset="0.25" style="stop-color:#FFFFFF;stop-opacity:0"/>
		<stop  offset="1" style="stop-color:#FFFFFF"/>
	</linearGradient>
	<ellipse fill="url(#SVGID_2_)" cx="69.029" cy="34.516" rx="43.145" ry="34.516"/>
</g>
</svg>
