<?xml version="1.0" encoding="utf-8"?>
<!-- Generator: Adobe Illustrator 16.0.0, SVG Export Plug-In . SVG Version: 6.00 Build 0)  -->
<!DOCTYPE svg PUBLIC "-//W3C//DTD SVG 1.1//EN" "http://www.w3.org/Graphics/SVG/1.1/DTD/svg11.dtd">
<svg version="1.1" id="Layer_1" xmlns="http://www.w3.org/2000/svg" xmlns:xlink="http://www.w3.org/1999/xlink" x="0px" y="0px"
	 width="138.059px" height="138.059px" viewBox="0 0 138.059 138.059" enable-background="new 0 0 138.059 138.059"
	 xml:space="preserve">
<g>
	<g>
		<g>
			<circle fill="#AFB3C1" cx="69.03" cy="69.029" r="69.03"/>
		</g>
		<g opacity="0.5">
			<linearGradient id="SVGID_1_" gradientUnits="userSpaceOnUse" x1="69.0298" y1="138.0586" x2="69.0298" y2="0">
				<stop  offset="0" style="stop-color:#000000;stop-opacity:0"/>
				<stop  offset="1" style="stop-color:#000000"/>
			</linearGradient>
			<circle fill="url(#SVGID_1_)" cx="69.03" cy="69.029" r="69.03"/>
		</g>
	</g>
	<path d="M34.167,46.615c-0.958,1.744-1.786,3.316-2.484,4.709c-0.697,1.309-1.264,2.4-1.7,3.27
		c1.917,3.84,3.575,7.195,4.971,10.074c1.483,2.791,2.703,5.146,3.663,7.066c-2.879,0-5.364-0.047-7.455-0.135
		c-2.183,0-3.97,0-5.365,0c-1.746-3.662-3.271-6.844-4.578-9.547c-1.222-2.793-2.269-5.057-3.14-6.805
		c1.656-3.137,3.095-5.887,4.316-8.238c1.222-2.355,2.268-4.32,3.14-5.887c0.087-0.086,0.13-0.176,0.13-0.264l0.132-0.262
		c1.657-3.139,3.096-5.885,4.315-8.24c1.223-2.355,2.226-4.27,3.009-5.754c3.75-0.266,7.021-0.48,9.812-0.656
		c2.79-0.174,5.101-0.305,6.932-0.393c1.483,2.703,2.792,5.1,3.925,7.195c1.047,2.006,1.918,3.707,2.616,5.102
		c-3.925,0-7.37,0.045-10.335,0.127c-2.966,0-5.406,0.051-7.323,0.135c-0.959,1.746-1.789,3.27-2.485,4.576
		c-0.701,1.396-1.31,2.533-1.833,3.404l-0.13,0.262C34.21,46.441,34.167,46.529,34.167,46.615z M92.903,51.85
		c-10.727,0-26.904,0-48.531,0c5.408,9.854,13.516,24.641,24.331,44.342C74.11,86.342,82.176,71.557,92.903,51.85z M86.754,94.887
		c1.484,2.615,2.749,4.971,3.795,7.063c1.046,2.01,1.92,3.709,2.617,5.102c-2.006,3.402-3.751,6.41-5.234,9.029
		c-1.482,2.527-2.746,4.664-3.794,6.41c-3.314,0-6.192,0-8.634,0s-4.49,0-6.148,0c-0.174,0-0.305,0-0.393,0h-0.13
		c-3.313,0-6.235,0-8.765,0c-2.441,0-4.49,0-6.147,0c-2.009-3.404-3.751-6.41-5.233-9.029c-1.568-2.529-2.834-4.662-3.793-6.41
		c1.396-2.789,2.615-5.186,3.663-7.193c1.046-2.006,1.962-3.666,2.747-4.971c1.918,3.664,3.662,6.891,5.231,9.678
		c1.483,2.793,2.747,5.105,3.794,6.934c1.83,0,3.445,0,4.839,0c1.484,0,2.706,0,3.664,0c0.087,0,0.175,0,0.262,0s0.175,0,0.261,0
		c1.832,0,3.445,0,4.842,0c1.394,0,2.572,0,3.531,0c2.006-3.66,3.793-6.887,5.363-9.678C84.574,99.027,85.795,96.719,86.754,94.887z
		 M119.982,55.248c-1.745,3.664-3.229,6.852-4.447,9.551c-1.308,2.705-2.354,4.971-3.138,6.801c-2.881,0.088-5.408,0.135-7.59,0.135
		c-2.18,0-3.967,0-5.364,0c1.919-3.752,3.577-7.066,4.972-9.945c1.483-2.877,2.704-5.275,3.664-7.195
		c-0.96-1.742-1.744-3.27-2.355-4.576c-0.697-1.393-1.265-2.529-1.699-3.402c-0.09-0.086-0.174-0.174-0.264-0.26
		c-0.085-0.088-0.131-0.174-0.131-0.262c-0.958-1.746-1.786-3.314-2.485-4.711c-0.696-1.309-1.265-2.4-1.701-3.27
		c-3.924-0.084-7.368-0.135-10.333-0.135c-3.051-0.082-5.539-0.127-7.457-0.127c1.396-2.793,2.661-5.188,3.796-7.197
		c1.044-2.09,1.962-3.793,2.746-5.1c3.662,0.26,6.888,0.479,9.681,0.654c2.789,0.088,5.145,0.219,7.063,0.395
		c1.657,3.051,3.095,5.754,4.318,8.109c1.221,2.354,2.266,4.316,3.141,5.885c0,0.088,0.043,0.176,0.129,0.262
		c0,0.088,0.045,0.178,0.131,0.264c1.656,3.139,3.096,5.887,4.317,8.238C118.195,51.719,119.198,53.68,119.982,55.248z"/>
	<linearGradient id="SVGID_2_" gradientUnits="userSpaceOnUse" x1="69.0298" y1="69.0293" x2="69.0298" y2="0">
		<stop  offset="0.25" style="stop-color:#FFFFFF;stop-opacity:0"/>
		<stop  offset="1" style="stop-color:#FFFFFF"/>
	</linearGradient>
	<ellipse fill="url(#SVGID_2_)" cx="69.03" cy="34.514" rx="43.143" ry="34.516"/>
</g>
</svg>
