<?xml version="1.0" encoding="utf-8"?>
<!-- Generator: Adobe Illustrator 16.0.0, SVG Export Plug-In . SVG Version: 6.00 Build 0)  -->
<!DOCTYPE svg PUBLIC "-//W3C//DTD SVG 1.1//EN" "http://www.w3.org/Graphics/SVG/1.1/DTD/svg11.dtd">
<svg version="1.1" id="Layer_1" xmlns="http://www.w3.org/2000/svg" xmlns:xlink="http://www.w3.org/1999/xlink" x="0px" y="0px"
	 width="138.059px" height="138.059px" viewBox="0 0 138.059 138.059" enable-background="new 0 0 138.059 138.059"
	 xml:space="preserve">
<g>
	<g>
		<g>
			<circle fill="#B2B192" cx="69.03" cy="69.029" r="69.03"/>
		</g>
		<g opacity="0.5">
			<linearGradient id="SVGID_1_" gradientUnits="userSpaceOnUse" x1="69.0298" y1="138.0586" x2="69.0298" y2="0">
				<stop  offset="0" style="stop-color:#000000;stop-opacity:0"/>
				<stop  offset="1" style="stop-color:#000000"/>
			</linearGradient>
			<circle fill="url(#SVGID_1_)" cx="69.03" cy="69.029" r="69.03"/>
		</g>
	</g>
	<path d="M111.466,92.275c-0.18-0.197-2.849-2.725-3.251-3.057c-2.822-2.609-5.496-5.387-8.03-8.32
		c-2.53-2.938-4.923-5.941-7.181-9.018c-0.558-0.908-0.842-1.857-0.859-2.85c0.017-0.992,0.302-1.943,0.859-2.855
		c2.256-3.072,4.65-6.076,7.182-9.012c2.534-2.938,5.207-5.713,8.029-8.324c0.402-0.33,3.071-2.857,3.251-3.057
		c0.657-0.561,3.085-2.742,4.126-3.635c-0.004,0.002-0.008,0.004-0.012,0.004c0.003-0.002,0.006-0.006,0.01-0.008
		c-1.293,0.457-4.398,1.467-5.211,1.756c-0.263,0.057-3.786,1.105-4.272,1.285c-3.673,1.141-7.413,2.068-11.223,2.795
		c-3.81,0.723-7.608,1.293-11.397,1.711c-1.068,0.027-2.035-0.201-2.902-0.684c-0.85-0.512-1.53-1.232-2.04-2.168
		c-1.533-3.492-2.937-7.066-4.216-10.727c-1.275-3.662-2.342-7.367-3.191-11.117c-0.086-0.512-0.94-4.088-1.021-4.34
		c-0.157-0.852-0.834-4.045-1.087-5.393l-0.001,0.004v-0.004c-0.252,1.348-0.93,4.543-1.086,5.393
		c-0.082,0.254-0.937,3.83-1.023,4.34c-0.848,3.75-1.914,7.457-3.191,11.117c-1.278,3.66-2.684,7.236-4.217,10.727
		c-0.508,0.938-1.189,1.66-2.042,2.172c-0.218,0.121-0.44,0.225-0.669,0.313c-0.688,0.266-1.429,0.389-2.227,0.367
		c-3.79-0.418-7.589-0.988-11.398-1.711c-3.81-0.727-7.55-1.654-11.222-2.795c-0.486-0.18-4.009-1.229-4.272-1.285
		c-0.813-0.289-3.918-1.299-5.212-1.756c0.001,0.002,0.003,0.004,0.005,0.004c-0.002,0-0.005,0-0.006-0.002
		c1.042,0.893,3.468,3.074,4.125,3.635c0.18,0.199,2.85,2.727,3.25,3.057c2.822,2.611,5.497,5.385,8.029,8.324
		c2.532,2.936,4.926,5.939,7.184,9.012c0.558,0.91,0.84,1.859,0.859,2.852c-0.016,0.992-0.302,1.943-0.859,2.854
		c-2.258,3.074-4.652,6.078-7.184,9.016c-2.533,2.936-5.205,5.711-8.029,8.322c-0.4,0.332-3.069,2.857-3.248,3.057
		c-0.659,0.561-3.086,2.744-4.127,3.637c0.003,0,0.008-0.002,0.011-0.004c-0.003,0.004-0.007,0.006-0.009,0.008
		c1.294-0.457,4.398-1.467,5.212-1.756c0.263-0.057,3.786-1.105,4.272-1.287c3.672-1.139,7.413-2.066,11.222-2.791
		c3.809-0.725,7.608-1.295,11.398-1.715c1.067-0.025,2.035,0.203,2.902,0.686c0.849,0.51,1.529,1.23,2.038,2.168
		c1.533,3.492,2.938,7.066,4.216,10.727c1.277,3.662,2.343,7.367,3.192,11.115c0.087,0.512,0.94,4.09,1.022,4.344
		c0.156,0.85,0.834,4.041,1.085,5.391l0.001-0.008c0.001,0.002,0.001,0.004,0.002,0.006c0.252-1.35,0.93-4.541,1.085-5.391
		c0.083-0.254,0.938-3.83,1.022-4.344c0.85-3.75,1.918-7.451,3.192-11.115c1.278-3.66,2.683-7.234,4.216-10.727
		c0.293-0.539,0.648-0.996,1.055-1.395c0.299-0.293,0.622-0.555,0.982-0.771c0.867-0.482,1.834-0.711,2.902-0.686
		c3.789,0.42,7.588,0.99,11.397,1.715s7.55,1.652,11.223,2.791c0.486,0.182,4.01,1.23,4.272,1.287
		c0.813,0.289,3.918,1.299,5.211,1.756c-0.002,0-0.004-0.002-0.006-0.004c0.002,0,0.006,0.002,0.007,0.002
		C114.551,95.02,112.124,92.836,111.466,92.275z"/>
	<linearGradient id="SVGID_2_" gradientUnits="userSpaceOnUse" x1="69.0298" y1="69.0293" x2="69.0298" y2="0">
		<stop  offset="0.25" style="stop-color:#FFFFFF;stop-opacity:0"/>
		<stop  offset="1" style="stop-color:#FFFFFF"/>
	</linearGradient>
	<ellipse fill="url(#SVGID_2_)" cx="69.03" cy="34.514" rx="43.143" ry="34.516"/>
</g>
</svg>
