<?xml version="1.0" encoding="utf-8"?>
<!-- Generator: Adobe Illustrator 16.0.0, SVG Export Plug-In . SVG Version: 6.00 Build 0)  -->
<!DOCTYPE svg PUBLIC "-//W3C//DTD SVG 1.1//EN" "http://www.w3.org/Graphics/SVG/1.1/DTD/svg11.dtd">
<svg version="1.1" id="Layer_1" xmlns="http://www.w3.org/2000/svg" xmlns:xlink="http://www.w3.org/1999/xlink" x="0px" y="0px"
	 width="138.059px" height="138.059px" viewBox="0 0 138.059 138.059" enable-background="new 0 0 138.059 138.059"
	 xml:space="preserve">
<g>
	<g>
		<g>
			<circle fill="#F65D9C" cx="69.029" cy="69.029" r="69.029"/>
		</g>
		<g opacity="0.5">
			<linearGradient id="SVGID_1_" gradientUnits="userSpaceOnUse" x1="69.0293" y1="138.0586" x2="69.0293" y2="0">
				<stop  offset="0" style="stop-color:#000000;stop-opacity:0"/>
				<stop  offset="1" style="stop-color:#000000"/>
			</linearGradient>
			<circle fill="url(#SVGID_1_)" cx="69.029" cy="69.029" r="69.029"/>
		</g>
	</g>
	<path d="M122.77,71.029c-2.67,6.713-5.843,12.785-9.52,18.211c-3.772,5.43-8.004,10.211-12.695,14.348
		c-4.781,4.143-9.795,7.27-15.039,9.385c-5.242,2.119-10.715,3.174-16.418,3.174h-0.139c-5.705,0-11.174-1.055-16.417-3.174
		c-5.244-2.115-10.259-5.242-15.04-9.385c-4.691-4.137-8.922-8.918-12.693-14.348c-3.681-5.426-6.853-11.498-9.52-18.211
		c2.667-7.359,5.839-13.982,9.52-19.869c3.771-5.887,8.002-11.129,12.693-15.729c4.781-4.504,9.796-7.865,15.04-10.07
		c5.243-2.299,10.712-3.451,16.417-3.451h0.139c5.703,0,11.176,1.152,16.418,3.451c5.244,2.205,10.258,5.566,15.039,10.07
		c4.691,4.6,8.923,9.842,12.695,15.729C116.927,57.047,120.1,63.67,122.77,71.029z M111.179,70.615
		c-2.118-5.521-4.6-10.484-7.45-14.902c-2.943-4.506-6.256-8.461-9.934-11.865c-0.554-0.461-1.104-0.918-1.656-1.381
		c-0.552-0.459-1.15-0.916-1.794-1.379c-0.186-0.092-0.323-0.227-0.414-0.414c-0.187-0.09-0.367-0.184-0.552-0.273
		c-0.463-0.279-0.874-0.553-1.24-0.828c-0.462-0.279-0.877-0.555-1.242-0.83c-0.186-0.092-0.369-0.184-0.554-0.275
		c-0.185-0.184-0.411-0.322-0.688-0.412c-0.367-0.186-0.781-0.416-1.242-0.691c-0.461-0.184-0.92-0.367-1.381-0.551
		c-0.186-0.09-0.323-0.186-0.414-0.277c-0.184-0.088-0.322-0.141-0.412-0.141c-0.092-0.088-0.187-0.135-0.276-0.135
		c-0.091-0.09-0.185-0.141-0.275-0.141c1.839,0.83,3.585,1.795,5.243,2.898c1.745,1.195,3.401,2.578,4.967,4.141
		c3.125,3.127,5.471,6.578,7.035,10.348c1.565,3.773,2.346,7.863,2.346,12.279c0,4.506-0.78,8.646-2.346,12.418
		c-1.564,3.865-3.91,7.359-7.035,10.486c-3.222,3.125-6.714,5.473-10.486,7.035c-3.772,1.568-7.912,2.346-12.418,2.346
		c-4.414,0-8.509-0.777-12.279-2.346c-3.773-1.563-7.266-3.91-10.486-7.035c-3.127-3.127-5.473-6.621-7.037-10.486
		c-1.565-3.771-2.344-7.912-2.344-12.418c0-4.416,0.778-8.506,2.344-12.279c1.564-3.77,3.91-7.221,7.037-10.348
		c1.564-1.563,3.173-2.896,4.83-4.002c1.746-1.193,3.496-2.16,5.242-2.896h-0.139c-0.09,0-0.185,0.047-0.274,0.135
		c-0.093,0-0.231,0.053-0.415,0.141c-0.092,0.092-0.229,0.188-0.414,0.277c-0.461,0.184-0.919,0.367-1.379,0.551
		c-0.463,0.275-0.875,0.506-1.241,0.691c-0.276,0.09-0.505,0.229-0.69,0.412c-0.186,0.092-0.367,0.184-0.552,0.275
		c-0.368,0.275-0.782,0.551-1.243,0.83c-0.367,0.275-0.781,0.549-1.24,0.828c-0.187,0.09-0.324,0.184-0.414,0.273
		c-0.186,0.188-0.367,0.322-0.552,0.414c-0.552,0.463-1.104,0.92-1.657,1.379c-0.644,0.463-1.195,0.92-1.654,1.381
		c-3.773,3.404-7.129,7.359-10.072,11.865c-2.852,4.418-5.334,9.381-7.449,14.902c2.115,4.965,4.598,9.52,7.449,13.658
		c2.943,4.051,6.299,7.637,10.072,10.762c3.678,3.129,7.588,5.473,11.727,7.037c4.049,1.568,8.326,2.346,12.832,2.346
		c4.6,0,8.92-0.777,12.97-2.346c4.14-1.564,8.093-3.908,11.866-7.037c3.678-3.125,6.99-6.711,9.934-10.762
		C106.579,80.135,109.061,75.58,111.179,70.615z M56.955,70.063c-0.367,0-0.689-0.047-0.965-0.139
		c-0.275-0.09-0.602-0.182-0.967-0.273c0.46,1.469,1.104,2.85,1.932,4.137c0.83,1.291,1.885,2.438,3.174,3.451
		c1.289,1.012,2.668,1.793,4.139,2.346c1.471,0.461,3.036,0.688,4.691,0.688c2.022,0,3.909-0.32,5.658-0.965
		c1.746-0.736,3.31-1.795,4.689-3.172c1.381-1.381,2.394-2.943,3.037-4.693c0.735-1.744,1.104-3.633,1.104-5.656
		c0-1.932-0.369-3.77-1.104-5.518c-0.644-1.656-1.656-3.221-3.037-4.689c-1.38-1.381-2.943-2.438-4.689-3.176
		c-1.749-0.736-3.636-1.104-5.658-1.104c-0.275,0-0.553,0.049-0.826,0.137c-0.188,0-0.416,0-0.69,0
		c-0.277,0.094-0.554,0.188-0.828,0.277c-0.187,0-0.415,0.049-0.688,0.137c0.551,0.463,1.053,0.967,1.517,1.518
		c0.365,0.551,0.735,1.197,1.104,1.932c0.366,0.645,0.597,1.336,0.69,2.07c0.184,0.738,0.275,1.52,0.275,2.344
		c0,1.473-0.23,2.854-0.689,4.141c-0.552,1.195-1.38,2.299-2.484,3.311c-1.016,1.105-2.117,1.932-3.313,2.486
		c-1.289,0.461-2.668,0.688-4.14,0.688c-0.366,0-0.688,0-0.964,0C57.553,70.246,57.231,70.154,56.955,70.063z"/>
	<linearGradient id="SVGID_2_" gradientUnits="userSpaceOnUse" x1="69.0293" y1="69.0293" x2="69.0293" y2="0">
		<stop  offset="0.25" style="stop-color:#FFFFFF;stop-opacity:0"/>
		<stop  offset="1" style="stop-color:#FFFFFF"/>
	</linearGradient>
	<ellipse fill="url(#SVGID_2_)" cx="69.029" cy="34.514" rx="43.143" ry="34.516"/>
</g>
</svg>
