<?xml version="1.0" encoding="utf-8"?>
<!-- Generator: Adobe Illustrator 16.0.0, SVG Export Plug-In . SVG Version: 6.00 Build 0)  -->
<!DOCTYPE svg PUBLIC "-//W3C//DTD SVG 1.1//EN" "http://www.w3.org/Graphics/SVG/1.1/DTD/svg11.dtd">
<svg version="1.1" id="Layer_1" xmlns="http://www.w3.org/2000/svg" xmlns:xlink="http://www.w3.org/1999/xlink" x="0px" y="0px"
	 width="138.059px" height="138.059px" viewBox="0 0 138.059 138.059" enable-background="new 0 0 138.059 138.059"
	 xml:space="preserve">
<g>
	<g>
		<g>
			<circle fill="#5F9FF8" cx="69.029" cy="69.029" r="69.029"/>
		</g>
		<g opacity="0.5">
			<linearGradient id="SVGID_1_" gradientUnits="userSpaceOnUse" x1="69.0293" y1="138.0586" x2="69.0293" y2="0">
				<stop  offset="0" style="stop-color:#000000;stop-opacity:0"/>
				<stop  offset="1" style="stop-color:#000000"/>
			</linearGradient>
			<circle fill="url(#SVGID_1_)" cx="69.029" cy="69.029" r="69.029"/>
		</g>
	</g>
	<path d="M93.315,32.607c-5.749,0.553-11.536,1.262-17.365,2.129c-5.829,0.867-11.417,2.281-16.773,4.25
		c-5.435,1.969-10.633,4.529-15.592,7.678c-1.18,0.709-2.324,1.459-3.426,2.246c-1.106,0.787-2.205,1.613-3.308,2.48
		c-1.024,0.865-2.008,1.771-2.955,2.715c-1.022,0.871-2.007,1.816-2.951,2.836c-0.868,1.025-1.696,2.09-2.481,3.189
		c-0.868,1.025-1.654,2.125-2.362,3.307c-0.789,1.107-1.497,2.244-2.127,3.428c-0.55,1.18-1.105,2.361-1.652,3.543
		c-1.104,2.441-1.969,4.922-2.599,7.441c-0.631,2.521-1.025,5.162-1.182,7.918c0,0.313,0,0.631,0,0.941c0,0.314,0,0.633,0,0.947
		c0,2.285,0.276,4.566,0.828,6.85c0.551,2.205,1.376,4.371,2.481,6.496c1.494,2.758,3.266,5.238,5.313,7.443
		c2.048,2.205,4.411,4.135,7.088,5.787c2.6,1.654,5.355,3.072,8.271,4.254c2.834,1.18,5.789,2.127,8.858,2.836
		c1.731,0.395,3.467,0.707,5.196,0.943c1.734,0.236,3.505,0.393,5.316,0.473c0.551,0.074,1.143,0.119,1.774,0.119
		c0.629,0,1.218,0,1.772,0c1.18,0,2.319,0,3.423,0c1.023-0.08,2.087-0.199,3.191-0.355c1.258-0.16,2.479-0.316,3.66-0.473
		c1.182-0.236,2.403-0.475,3.663-0.707c1.181-0.314,2.32-0.67,3.426-1.066c1.182-0.467,2.321-0.984,3.426-1.533
		c1.102-0.553,2.125-1.225,3.072-2.008c1.02-0.711,1.965-1.537,2.835-2.482c0.943-0.867,1.771-1.813,2.48-2.832
		c0.708-1.023,1.336-2.088,1.889-3.189c0.547-1.184,1.021-2.365,1.417-3.545c0.393-1.262,0.666-2.523,0.826-3.781
		c0.158-1.338,0.195-2.639,0.119-3.896c-0.161-1.26-0.397-2.521-0.709-3.781c-0.314-1.18-0.751-2.322-1.299-3.424
		c-0.473-1.104-1.104-2.168-1.89-3.191c-0.709-1.023-1.458-2.008-2.246-2.951c-0.708-1.023-1.496-2.01-2.362-2.955
		c-0.867-0.945-1.731-1.891-2.598-2.836c-0.946-0.943-1.851-1.93-2.717-2.951c-0.868-1.021-1.694-2.049-2.48-3.07
		c-0.709-1.104-1.379-2.248-2.01-3.426c-0.55-1.184-1.063-2.365-1.536-3.545c-0.471-1.258-0.828-2.561-1.062-3.898
		c-0.315-1.338-0.473-2.674-0.473-4.018c0-1.338,0.119-2.637,0.356-3.896c0.55-2.994,1.652-5.592,3.309-7.801
		c1.651-2.199,3.855-4.053,6.613-5.547c2.675-1.418,5.355-2.68,8.032-3.783c2.675-1.102,5.355-2.045,8.034-2.834
		c0.549-0.156,1.103-0.313,1.652-0.473c0.55-0.158,1.141-0.314,1.771-0.473c0.55-0.158,1.103-0.311,1.655-0.471
		c0.629-0.16,1.221-0.314,1.772-0.473C104.85,31.504,99.061,31.977,93.315,32.607z M67.445,117.07
		c-0.314,0.785-0.948,1.373-1.889,1.77c-0.946,0.393-2.245,0.594-3.898,0.594c-1.497,0-3.112-0.201-4.844-0.594
		c-1.734-0.396-3.543-0.984-5.434-1.77c-1.89-0.711-3.543-1.537-4.96-2.48c-1.496-0.949-2.759-1.969-3.781-3.074
		c-1.182-1.02-1.969-2.008-2.362-2.951c-0.395-0.947-0.433-1.813-0.117-2.598c0.393-0.713,1.063-1.26,2.006-1.656
		c0.946-0.396,2.204-0.59,3.782-0.59c1.574,0,3.228,0.193,4.959,0.59c1.732,0.396,3.506,0.943,5.317,1.656
		c1.89,0.785,3.583,1.65,5.079,2.598c1.495,0.943,2.794,1.932,3.898,2.951c1.104,1.105,1.812,2.125,2.128,3.074
		C67.721,115.533,67.758,116.359,67.445,117.07z"/>
	<linearGradient id="SVGID_2_" gradientUnits="userSpaceOnUse" x1="69.0293" y1="69.0293" x2="69.0293" y2="0">
		<stop  offset="0.25" style="stop-color:#FFFFFF;stop-opacity:0"/>
		<stop  offset="1" style="stop-color:#FFFFFF"/>
	</linearGradient>
	<ellipse fill="url(#SVGID_2_)" cx="69.029" cy="34.514" rx="43.143" ry="34.516"/>
</g>
</svg>
