<?xml version="1.0" encoding="utf-8"?>
<!-- Generator: Adobe Illustrator 16.0.0, SVG Export Plug-In . SVG Version: 6.00 Build 0)  -->
<!DOCTYPE svg PUBLIC "-//W3C//DTD SVG 1.1//EN" "http://www.w3.org/Graphics/SVG/1.1/DTD/svg11.dtd">
<svg version="1.1" id="Layer_1" xmlns="http://www.w3.org/2000/svg" xmlns:xlink="http://www.w3.org/1999/xlink" x="0px" y="0px"
	 width="290.694px" height="207.792px" viewBox="0 0 290.694 207.792" enable-background="new 0 0 290.694 207.792"
	 xml:space="preserve">
<g>
	<g>
		<g>
			<circle fill="#FAB4D9" cx="69.028" cy="69.031" r="69.029"/>
		</g>
		<g opacity="0.5">
			
				<linearGradient id="SVGID_1_" gradientUnits="userSpaceOnUse" x1="69.0483" y1="120.2681" x2="69.0483" y2="258.3262" gradientTransform="matrix(1 0 0 -1 -0.02 258.3281)">
				<stop  offset="0" style="stop-color:#000000;stop-opacity:0"/>
				<stop  offset="1" style="stop-color:#000000"/>
			</linearGradient>
			<circle fill="url(#SVGID_1_)" cx="69.028" cy="69.031" r="69.029"/>
		</g>
	</g>
	<path d="M59.003,99.528c1.189,1.923,2.29,3.894,3.296,5.904c0.915,1.924,1.647,3.937,2.197,6.043
		c0.642,2.017,1.1,4.032,1.375,6.045c0.364,2.105,0.549,4.207,0.549,6.316c0,0.09,0,0.229,0,0.412c0,0.088-0.047,0.227-0.138,0.412
		c-5.311-1.375-10.484-3.158-15.52-5.355c-4.945-2.199-9.797-4.809-14.559-7.831c-4.763-3.021-8.789-6.639-12.084-10.85
		c-3.3-4.209-5.861-8.974-7.693-14.281c-0.64-1.738-1.19-3.525-1.647-5.357c-0.366-1.829-0.687-3.659-0.961-5.491
		c-0.092-1.103-0.138-2.107-0.138-3.023c-0.092-1.006-0.137-2.014-0.137-3.021c0-0.912,0.045-1.832,0.137-2.744
		c0-0.914,0.046-1.832,0.138-2.748c0.364-3.482,1.053-6.914,2.061-10.301c1.008-3.298,2.381-6.593,4.121-9.892
		c1.646-3.205,3.617-6.088,5.902-8.649c2.291-2.656,4.946-4.99,7.969-7.007c-1.19,2.474-2.384,4.992-3.572,7.558
		c-1.098,2.473-2.15,4.992-3.16,7.553c-1.006,2.563-1.69,5.174-2.059,7.828c-0.273,2.656-0.273,5.404,0,8.238
		c0.272,2.198,0.732,4.258,1.373,6.18c0.642,2.016,1.42,3.939,2.336,5.771c1.008,1.738,2.149,3.388,3.434,4.943
		c1.372,1.56,2.931,3.021,4.668,4.396c1.008,0.823,2.063,1.604,3.16,2.334c1.006,0.735,2.06,1.422,3.158,2.061
		c1.102,0.641,2.151,1.285,3.16,1.922c1.098,0.734,2.151,1.465,3.157,2.199c1.009,0.641,1.969,1.375,2.886,2.197
		c0.914,0.823,1.738,1.694,2.471,2.608c0.732,0.916,1.418,1.834,2.059,2.746C57.676,97.561,58.362,98.521,59.003,99.528z
		 M77.817,58.463c-0.917,1.467-1.693,3.022-2.335,4.672c-0.642,1.648-1.145,3.434-1.511,5.354c-0.457,1.835-0.916,3.664-1.373,5.494
		c-0.367,1.922-0.731,3.894-1.099,5.904c-0.185,0.646-0.322,1.285-0.414,1.922c-0.091,0.734-0.184,1.422-0.272,2.062
		c-0.091,0.645-0.229,1.284-0.413,1.924c-0.091,0.643-0.228,1.328-0.409,2.061c0,0.09,0,0.185,0,0.275
		c-0.094,0.184-0.186,0.274-0.276,0.274c0,0.093-0.045,0.138-0.139,0.138c-0.089,0-0.181,0-0.273,0c-0.182,0-0.319,0-0.412,0
		c-0.091,0-0.184-0.045-0.273-0.138c-0.092,0-0.184-0.092-0.274-0.274c0-0.092,0-0.187,0-0.275c-0.184-0.731-0.32-1.418-0.412-2.061
		c-0.183-0.64-0.318-1.279-0.412-1.924c-0.092-0.64-0.184-1.326-0.272-2.062c-0.185-0.637-0.367-1.276-0.552-1.922
		c-0.272-2.012-0.596-3.982-0.96-5.904c-0.367-1.83-0.822-3.659-1.374-5.494c-0.364-1.831-0.868-3.614-1.512-5.354
		c-0.641-1.648-1.417-3.205-2.333-4.672c-1.008-1.463-2.151-2.881-3.434-4.256c-1.283-1.375-2.702-2.654-4.26-3.847
		c-1.555-1.098-3.202-2.194-4.944-3.295c-1.738-1.1-3.566-2.244-5.491-3.434c-0.368-0.185-0.779-0.412-1.237-0.689
		c-0.365-0.362-0.776-0.684-1.235-0.959c-0.367-0.274-0.777-0.504-1.234-0.688c-0.458-0.273-0.872-0.549-1.236-0.826
		c-0.092,0-0.183-0.043-0.274-0.135c-0.092-0.088-0.184-0.185-0.275-0.273v-0.14c0-0.086,0-0.183,0-0.271v-0.139v-0.137
		c0.093-0.09,0.185-0.183,0.275-0.273c0.093-0.092,0.184-0.139,0.274-0.139c0.093-0.09,0.185-0.139,0.273-0.139
		c0.091,0,0.184,0.049,0.275,0.139c0.364,0,0.777,0.047,1.235,0.139c0.365,0.092,0.733,0.137,1.099,0.137
		c0.458,0.091,0.917,0.138,1.375,0.138c0.364,0.092,0.776,0.137,1.235,0.137c0.642,0.187,1.326,0.324,2.062,0.41
		c0.639,0.188,1.327,0.326,2.059,0.414c0.732,0.092,1.42,0.186,2.062,0.274c0.731,0,1.42,0,2.059,0c1.008,0.091,1.924,0.091,2.748,0
		c0.822-0.09,1.602-0.227,2.334-0.411c0.732-0.186,1.375-0.459,1.924-0.824c0.641-0.273,1.19-0.594,1.648-0.963
		c0.914-0.732,1.739-1.646,2.471-2.744c0.732-1.008,1.327-2.199,1.785-3.572c0.551-1.461,1.054-2.883,1.512-4.256
		c0.459-1.465,0.916-2.932,1.373-4.396c0.092-0.457,0.183-0.911,0.275-1.373c0.09-0.457,0.182-0.913,0.272-1.375
		c0.184-0.454,0.32-0.909,0.412-1.37c0.185-0.457,0.322-0.871,0.412-1.236c0-0.092,0.045-0.182,0.139-0.277
		c0.09-0.088,0.137-0.18,0.137-0.271c0.091,0,0.184-0.049,0.273-0.142c0.185,0,0.32,0,0.412,0h0.137
		c0.095,0.093,0.185,0.142,0.275,0.142c0.092,0.092,0.137,0.184,0.137,0.271c0.093,0.097,0.141,0.187,0.141,0.277
		c0.091,0.365,0.228,0.779,0.409,1.236c0.093,0.461,0.229,0.916,0.413,1.37c0.091,0.462,0.183,0.918,0.272,1.375
		c0.092,0.462,0.229,0.916,0.414,1.373c0.366,1.466,0.779,2.933,1.234,4.396c0.459,1.373,0.964,2.795,1.513,4.256
		c0.548,1.373,1.145,2.564,1.784,3.572c0.732,1.1,1.558,2.012,2.473,2.744c0.458,0.369,1.008,0.688,1.647,0.963
		c0.551,0.365,1.188,0.639,1.924,0.824c0.731,0.186,1.51,0.321,2.334,0.411c0.823,0.091,1.737,0.091,2.748,0c0.73,0,1.418,0,2.059,0
		c0.641-0.09,1.326-0.184,2.061-0.274c0.642-0.088,1.328-0.228,2.062-0.414c0.731-0.086,1.464-0.226,2.197-0.41
		c0.365,0,0.776-0.045,1.235-0.137c0.366,0,0.777-0.047,1.236-0.138c0.365,0,0.73-0.045,1.096-0.137
		c0.367-0.092,0.779-0.139,1.238-0.139c0.092-0.09,0.184-0.139,0.274-0.139c0.09,0,0.184,0.049,0.275,0.139
		c0.091,0,0.183,0.047,0.271,0.139c0.092,0.092,0.185,0.185,0.278,0.273v0.137v0.139c0,0.091,0,0.187,0,0.271v0.141
		c-0.095,0.09-0.188,0.187-0.278,0.273c-0.09,0.092-0.182,0.135-0.271,0.135c-0.367,0.277-0.78,0.553-1.238,0.826
		c-0.364,0.184-0.777,0.412-1.235,0.688c-0.457,0.365-0.915,0.689-1.373,0.959c-0.456,0.277-0.871,0.507-1.236,0.689
		c-1.83,1.188-3.615,2.334-5.355,3.434c-1.738,1.101-3.389,2.197-4.942,3.295c-1.648,1.191-3.114,2.472-4.396,3.847
		C79.832,55.582,78.731,57,77.817,58.463z M121.629,86.346c-1.83,5.309-4.396,10.072-7.692,14.281
		c-3.296,4.211-7.322,7.828-12.086,10.85c-4.761,3.021-9.613,5.63-14.556,7.83c-5.037,2.197-10.21,3.98-15.521,5.355
		c-0.093-0.186-0.138-0.324-0.138-0.412c0-0.184,0-0.322,0-0.412c0-2.109,0.182-4.211,0.549-6.316
		c0.275-2.014,0.687-4.028,1.235-6.044c0.64-2.106,1.419-4.119,2.333-6.043c1.01-2.012,2.106-3.981,3.299-5.904
		c0.642-1.008,1.327-1.969,2.058-2.885c0.643-0.912,1.376-1.83,2.2-2.746c0.73-0.914,1.51-1.785,2.334-2.608
		c0.916-0.822,1.83-1.558,2.745-2.197c1.102-0.734,2.151-1.465,3.161-2.199c1.099-0.637,2.196-1.281,3.296-1.922
		c1.098-0.639,2.151-1.324,3.159-2.061c1.096-0.73,2.15-1.511,3.156-2.334c1.74-1.373,3.295-2.836,4.672-4.396
		c1.281-1.557,2.426-3.248,3.434-5.082c0.914-1.738,1.693-3.617,2.334-5.633c0.642-1.922,1.1-3.98,1.373-6.18
		c0.275-2.834,0.229-5.582-0.137-8.238c-0.275-2.654-0.917-5.266-1.922-7.828c-1.007-2.561-2.107-5.08-3.297-7.553
		c-1.101-2.564-2.244-5.084-3.435-7.558c3.021,2.017,5.678,4.351,7.965,7.007c2.289,2.563,4.261,5.444,5.907,8.649
		c1.646,3.299,3.02,6.594,4.119,9.892c1.006,3.387,1.695,6.817,2.061,10.301c0.092,0.916,0.137,1.834,0.137,2.748
		c0.092,0.912,0.137,1.832,0.137,2.744c0,1.008-0.045,2.016-0.137,3.021c0,0.916-0.045,1.922-0.137,3.023
		c-0.275,1.832-0.596,3.662-0.961,5.491C122.817,82.819,122.27,84.606,121.629,86.346z"/>
	
		<linearGradient id="SVGID_2_" gradientUnits="userSpaceOnUse" x1="69.0488" y1="189.2954" x2="69.0488" y2="258.3276" gradientTransform="matrix(1 0 0 -1 -0.02 258.3281)">
		<stop  offset="0.25" style="stop-color:#FFFFFF;stop-opacity:0"/>
		<stop  offset="1" style="stop-color:#FFFFFF"/>
	</linearGradient>
	<ellipse fill="url(#SVGID_2_)" cx="69.028" cy="34.516" rx="43.144" ry="34.516"/>
</g>
<g>
	<g>
		<g>
			<circle fill="#96E5EC" cx="221.665" cy="69.031" r="69.029"/>
		</g>
		<g opacity="0.5">
			
				<linearGradient id="SVGID_3_" gradientUnits="userSpaceOnUse" x1="221.6865" y1="120.269" x2="221.6865" y2="258.3262" gradientTransform="matrix(1 0 0 -1 -0.02 258.3281)">
				<stop  offset="0" style="stop-color:#000000;stop-opacity:0"/>
				<stop  offset="1" style="stop-color:#000000"/>
			</linearGradient>
			<circle fill="url(#SVGID_3_)" cx="221.665" cy="69.031" r="69.029"/>
		</g>
	</g>
	<polygon points="269.822,96.834 267.169,86.926 267.166,86.926 259.852,82.701 264.326,79.709 264.566,75.338 264.567,75.336 
		258.192,72.864 258.191,72.864 258.19,72.864 249.471,76.709 242.85,72.885 236.176,69.03 244.466,64.246 249.471,61.355 
		258.189,65.201 258.19,65.201 258.191,65.201 264.566,62.729 264.566,62.727 264.326,58.356 259.852,55.36 267.167,51.139 
		267.169,51.139 269.822,41.23 269.82,41.23 269.822,41.229 259.914,38.571 259.912,38.574 252.599,42.799 252.242,37.426 
		248.577,35.033 248.576,35.03 243.248,39.315 243.248,39.315 243.247,39.315 242.218,48.793 235.595,52.612 228.922,56.467 
		228.922,53.414 228.922,41.114 236.61,35.485 236.611,35.485 236.611,35.483 237.657,28.727 237.655,28.727 233.752,26.75 
		228.922,29.129 228.922,20.682 228.922,20.68 221.669,13.426 221.666,13.428 221.665,13.426 214.412,20.68 214.412,20.682 
		214.412,29.129 209.582,26.75 205.679,28.727 205.677,28.727 206.723,35.483 206.723,35.485 206.724,35.485 214.412,41.114 
		214.412,53.414 214.412,56.467 211.77,54.94 201.118,48.793 200.089,39.317 200.088,39.315 200.088,39.315 194.76,35.033 
		194.757,35.035 191.093,37.426 190.737,42.797 183.423,38.574 183.422,38.574 173.513,41.23 173.513,41.23 173.512,41.23 
		176.166,51.139 176.169,51.139 183.483,55.362 179.009,58.356 178.77,62.727 178.768,62.729 185.143,65.201 185.144,65.201 
		185.145,65.201 193.864,61.355 204.515,67.506 207.158,69.03 204.515,70.559 193.864,76.709 185.145,72.864 185.144,72.864 
		185.143,72.864 178.769,75.336 178.77,75.338 179.009,79.709 183.483,82.701 176.169,86.922 176.167,86.926 173.513,96.832 
		173.513,96.834 173.513,96.834 183.421,99.489 183.423,99.489 190.737,95.264 191.094,100.637 194.758,103.028 194.759,103.03 
		200.088,98.748 200.088,98.746 200.088,98.746 201.117,89.272 211.769,83.123 214.412,81.598 214.412,91.168 214.412,96.946 
		206.724,102.576 206.723,102.578 206.723,102.578 205.677,109.336 205.679,109.338 209.582,111.314 214.412,108.936 
		214.412,117.383 214.412,117.385 221.665,124.637 221.666,124.637 221.669,124.637 228.922,117.385 228.922,117.383 
		228.922,108.936 233.752,111.314 237.655,109.338 237.657,109.336 236.611,102.578 236.611,102.578 236.61,102.576 228.922,96.946 
		228.922,89.303 228.922,81.598 237.212,86.383 242.217,89.272 243.246,98.746 243.247,98.748 243.247,98.748 248.575,103.03 
		248.576,103.028 252.242,100.637 252.598,95.264 259.913,99.489 259.914,99.489 269.822,96.834 269.821,96.834 	"/>
	
		<linearGradient id="SVGID_4_" gradientUnits="userSpaceOnUse" x1="221.6865" y1="189.2954" x2="221.6865" y2="258.3276" gradientTransform="matrix(1 0 0 -1 -0.02 258.3281)">
		<stop  offset="0.25" style="stop-color:#FFFFFF;stop-opacity:0"/>
		<stop  offset="1" style="stop-color:#FFFFFF"/>
	</linearGradient>
	<ellipse fill="url(#SVGID_4_)" cx="221.665" cy="34.516" rx="43.144" ry="34.516"/>
</g>
<g>
	<g>
		<g>
			<circle fill="#C3AE55" cx="145.347" cy="138.764" r="69.029"/>
		</g>
		<g opacity="0.5">
			
				<linearGradient id="SVGID_5_" gradientUnits="userSpaceOnUse" x1="145.3672" y1="50.5356" x2="145.3672" y2="188.5938" gradientTransform="matrix(1 0 0 -1 -0.02 258.3281)">
				<stop  offset="0" style="stop-color:#000000;stop-opacity:0"/>
				<stop  offset="1" style="stop-color:#000000"/>
			</linearGradient>
			<circle fill="url(#SVGID_5_)" cx="145.347" cy="138.764" r="69.029"/>
		</g>
	</g>
	<g>
		<polygon points="118.486,126.55 97.417,114.384 97.417,163.141 118.486,150.972 		"/>
		<polygon points="100.272,168.084 142.492,192.461 142.492,168.13 121.338,155.92 		"/>
		<polygon points="148.203,168.13 148.203,192.461 190.421,168.084 169.356,155.92 		"/>
		<polygon points="172.211,126.55 172.211,150.972 193.276,163.136 193.276,114.386 		"/>
		<polygon points="142.492,109.395 142.492,85.067 100.274,109.444 121.342,121.606 		"/>
		<polygon points="190.421,109.444 148.203,85.067 148.203,109.395 169.356,121.608 		"/>
		<polygon points="166.498,126.55 145.347,114.339 124.194,126.55 124.194,150.972 145.347,163.188 166.498,150.972 		"/>
	</g>
	
		<linearGradient id="SVGID_6_" gradientUnits="userSpaceOnUse" x1="145.3667" y1="119.563" x2="145.3667" y2="188.5938" gradientTransform="matrix(1 0 0 -1 -0.02 258.3281)">
		<stop  offset="0.25" style="stop-color:#FFFFFF;stop-opacity:0"/>
		<stop  offset="1" style="stop-color:#FFFFFF"/>
	</linearGradient>
	<path fill="url(#SVGID_6_)" d="M188.49,104.25c0,19.063-19.315,34.515-43.144,34.515c-23.827,0-43.144-15.452-43.144-34.515
		c0-19.064,19.317-34.516,43.144-34.516C169.174,69.735,188.49,85.186,188.49,104.25z"/>
</g>
</svg>
